<?xml version="1.0" encoding="utf-8"?>
<!-- Generator: Adobe Illustrator 15.0.2, SVG Export Plug-In  -->
<!DOCTYPE svg PUBLIC "-//W3C//DTD SVG 1.1//EN" "http://www.w3.org/Graphics/SVG/1.1/DTD/svg11.dtd" [
	<!ENTITY ns_flows "http://ns.adobe.com/Flows/1.0/">
]>
<svg version="1.1"
	 xmlns="http://www.w3.org/2000/svg" xmlns:xlink="http://www.w3.org/1999/xlink" xmlns:a="http://ns.adobe.com/AdobeSVGViewerExtensions/3.0/"
	 x="0px" y="0px" width="212px" height="216px" viewBox="-28.999 -21.579 212 216"
	 overflow="visible" enable-background="new -28.999 -21.579 212 216" xml:space="preserve">
<defs>
</defs>
<path fill="#EE2C27" d="M69.839,144.026c6.872,10.303,18.648,16.93,31.898,16.93c21.349,0,38.522-17.174,38.522-38.521
	c0-20.854-16.439-37.54-37.051-38.524H76.223l47.353-70.417H69.839V0h70.421v12.019l-39.014,58.398h0.491
	c28.952,0,52.265,23.063,52.265,52.018c0,28.952-23.312,52.26-52.265,52.26c-18.153,0-34.104-9.321-43.428-23.308L69.839,144.026z"
	/>
<path fill-rule="evenodd" clip-rule="evenodd" fill="#EE2C27" d="M64.963,2.51c0.66,1.172-0.671,1.994-0.431,3.442
	c-0.146,1.149,1.291,0.716,1.291,1.72c0.033,2.185-1.248,3.053-2.581,3.872c-5.51,24.175-10.02,49.35-15.273,73.782
	c0.716,0.79,2.043,0.971,3.228,1.291c1.827-2.546,1.527-7.22,2.15-10.971c1.894,0.472,3.651,1.081,5.594,1.506
	c-3.491,10.514-5.382,21.731-7.744,33.125c-1.252,6.029-3.214,12.015-3.442,18.5c-2.406,0.039-3.954-0.779-5.808-1.291
	c0.833-6.051,4.046-9.721,4.087-16.564c-0.437-0.493-1.286-0.576-2.15-0.645c-1.341,1.422-0.521,3.389-0.86,4.948
	c-0.42,1.923-2.242,4.041-3.442,5.593c-1.699,2.198-5.53,5.799-5.809,9.25c-0.126,1.583,0.705,2.964,0.862,4.517
	c0.139,1.39,0.11,2.969,0,4.302c-0.284,3.385-0.957,6.91-1.508,10.325c-1.326,8.239-2.962,16.178-4.302,24.737
	c-8.902,0.777-19.651,0.854-28.824,0.646c0.245-3.868,2.569-7.129,4.302-10.325c4.358-8.035,8.845-15.793,13.553-24.092
	c0.901-1.589,2.306-3.052,2.797-4.518c1.212-3.624,0.145-7.341,2.58-9.68c2.089-2.007,6.079-1.968,7.314-4.733
	c-1.079-1.312-2.838-1.012-3.657-2.365c-1.926-3.182,1.021-7.379,2.798-9.033c1.396-0.181,2.541-0.613,3.87-0.861
	c1.958-7.724,3.75-15.608,5.163-23.876c0.405-0.527,1.405-0.46,1.937-0.86c2.983-11.285,4.764-23.773,7.959-34.847
	c3.272,0.85,3.593-2.044,4.517-6.454c2.271-10.84,5.554-24.596,7.529-34.632c0.563-2.859,0.45-4.456,1.29-6.453
	C63.181,1.853,64.518,1.735,64.963,2.51z M47.108,89.412c-1.052,5.479-3.333,10.861-3.013,16.993
	c0.766,0.588,2.229,0.668,3.229,0.431c1.146-5.45,2.382-10.812,3.441-16.347C50.042,89.634,48.809,89.29,47.108,89.412z
	 M27.964,117.59c0.944,0.706,1.708,1.591,3.442,1.507c0.424-0.654,0.518-1.634,0.43-2.797c-0.578-0.569-2.116-0.178-2.367-1.075
	c0.034-1.662,1.423-0.652,2.798-0.86c0.504-0.787,0.934-1.648,0.859-3.012C29.416,110.614,27.765,113.709,27.964,117.59z"/>
<path fill-rule="evenodd" clip-rule="evenodd" fill="#EE2C27" d="M123.712,143.912c1.485,2.148,3.146,4.061,4.843,6.027
	c1.604,1.856,3.766,3.567,4.65,6.026c-3.21,1.059-9.94,0.402-13.176,0.345c-2.378-1.388-3.177-4.179-5.425-5.684
	c-6.244,2.892-15.438,4.37-23.835,2.411c-12.699-2.96-22.815-14.479-24.608-27.034c-1.616-11.314,2.774-20.257,8.913-26.689
	c6.708-7.029,19.117-12.869,33.329-9.127c11.127,2.932,19.778,11.661,22.865,21.524
	C134.945,123.462,131.647,135.837,123.712,143.912z M77.98,120.493c1.569,0.651,5.096,0.361,6.977,0.173
	c1.687-6.708,5.102-11.883,13.369-12.742c0.799-2.349,0.718-5.615,0-7.403C85.779,101.939,78.824,109.247,77.98,120.493z
	 M101.04,100.52c-0.603,1.888-0.627,5.691,0,7.576c8.025,0.847,11.024,6.159,12.789,12.569c1.861,0.279,4.92,0.279,6.782,0
	C121.104,109.704,111.291,101.474,101.04,100.52z M123.13,102.756c-1.979-1.238-4.897-0.307-5.425,1.896
	c-0.692,2.883,1.155,4.057,3.293,4.649C124.769,109.067,125.769,104.411,123.13,102.756z M87.088,120.321
	c1.468,0.935,4.633,0.36,6.977,0.517c1.174-1.768,2.595-3.318,4.65-4.305c0.002-1.929,0.29-4.754-0.194-6.543
	C91.687,110.06,88.34,114.716,87.088,120.321z M101.04,109.817c-0.688,1.713-0.438,5.081-0.194,7.06
	c1.686,0.915,2.765,2.366,3.682,3.961c2.284-0.209,5.596,0.497,6.977-0.517C110.601,114.523,107.24,110.908,101.04,109.817z
	 M78.562,122.56c-0.279,0.097-0.473,0.269-0.582,0.517c0.065,0.722-0.084,1.576,0,2.237c0.855,6.712,6.892,13.387,13.759,16.016
	c1.909,0.731,4.36,0.912,6.587,1.205c0.921-1.83,0.432-5.791,0.194-7.232c-7.913-1.118-11.888-5.737-13.369-12.57
	C83.279,122.388,80.739,122.635,78.562,122.56z M88.058,122.56c-0.194-0.001-0.231,0.139-0.388,0.172
	c-0.813,4.64,5.184,10.88,10.851,10.331c0.446-1.568,0.284-4.463,0.194-6.714c-2.152-0.671-3.202-2.32-4.456-3.789
	C92.191,122.56,90.124,122.56,88.058,122.56z M104.334,122.732c-1.204,0.963-2.191,3.153-3.682,3.617
	c0.2,2.231-0.436,5.207,0.388,6.887c5.928-1.104,10.041-4.735,10.076-10.504C109.086,122.758,105.233,122.011,104.334,122.732z
	 M113.635,122.732c-1.525,6.509-5.078,11.214-12.595,12.397c-0.618,1.753-0.618,5.479,0,7.233c1.181-0.196,2.484-0.079,3.682-0.345
	c8.428-1.866,16.147-10.093,15.89-19.286C118.669,122.436,115.584,122.475,113.635,122.732z"/>
</svg>
