<?xml version="1.0" encoding="utf-8"?>
<!-- Generator: Adobe Illustrator 15.0.2, SVG Export Plug-In . SVG Version: 6.00 Build 0)  -->
<!DOCTYPE svg PUBLIC "-//W3C//DTD SVG 1.1//EN" "http://www.w3.org/Graphics/SVG/1.1/DTD/svg11.dtd">
<svg version="1.1" id="Layer_1" xmlns="http://www.w3.org/2000/svg" xmlns:xlink="http://www.w3.org/1999/xlink" x="0px" y="0px"
	 width="480px" height="640px" viewBox="132 76 480 640" enable-background="new 132 76 480 640" xml:space="preserve">
<g>
	<path fill="#FFFFFF" d="M531.323,183.554v24.451L426.187,358.987h9.169c72.128,0,130.198,57.458,130.198,129.585
		c0,72.131-58.07,130.199-130.198,130.199c-45.233,0-84.965-23.227-108.193-58.068l23.229-14.67
		c18.338,27.506,49.512,45.232,84.965,45.232c59.904,0,102.691-48.9,102.691-102.693c0-59.291-47.679-100.245-99.023-102.69h-62.961
		l121.642-174.82H355.892v-27.508H531.323z"/>
	<path fill="#FFFFFF" d="M411.791,395.144c-36.525,9.907-65.567,45.803-67.24,86.458c7.176,2.904,22.205,1.611,30.715,0.779
		c4.541-33.127,23.782-52.461,57.279-58.418c1.21-8.75,1.41-21.66,0-30.377C424.874,392.498,417.986,393.461,411.791,395.144z"/>
	<path fill="#FFFFFF" d="M443.337,392.806c-1.359,9.243-1.359,23.471,0,32.715c33.63,4.533,47.838,27.291,54.787,56.857
		c7.977,1.266,21.078,1.266,29.056,0C526.947,435.586,490.474,397.021,443.337,392.806z"/>
	<path fill="#FFFFFF" d="M384.396,481.6c7.137,3.172,20.122,0.854,29.885,1.559c3.84-8.08,9.129-14.801,18.263-17.914
		c1.328-8.639,1.328-21.738,0-30.377C404.534,436.188,389.038,455.777,384.396,481.6z"/>
	<path fill="#FFFFFF" d="M443.337,434.867c-1.935,8.57-0.28,20.508-0.831,30.377c6.928,4.404,12.145,10.414,15.772,17.916
		c9.172-0.482,20.422,0.988,28.225-0.779C486.527,456.637,467.322,438.082,443.337,434.867z"/>
	<path fill="#FFFFFF" d="M345.381,492.506c0.036,1.072-0.391,1.711-0.83,2.338c0.727,4.062,0.033,8.689,0.83,12.461
		c8.187,38.746,42.132,71.969,86.334,73.217c2.679-7.268,2.679-23.889,0-31.156c-33.56-4.861-50.624-25.197-56.449-56.08
		C366.832,491.592,355.162,492.934,345.381,492.506z"/>
	<path fill="#FFFFFF" d="M386.058,492.506c0.666,25.686,19.716,44.781,45.656,46.732c3.018-7.299,1.779-21.848,0.83-30.375
		c-8.223-3.189-14.006-8.666-17.433-16.357C405.427,492.506,395.742,492.506,386.058,492.506z"/>
	<path fill="#FFFFFF" d="M458.278,492.506c-4.759,5.66-8.202,12.555-15.772,15.578c0.478,10.457-1.002,22.75,0.831,31.936
		c24.55-6.305,41.545-19.695,43.166-47.512C477.096,492.506,467.688,492.506,458.278,492.506z"/>
	<path fill="#FFFFFF" d="M498.125,492.506c-7.322,28.959-21.447,51.535-54.787,56.08c-1.312,8.947-1.422,23.006,0,31.936
		c3.638,1.1,8.074-1.752,14.111-0.777c39.396-13.148,67.583-40.959,69.731-86.459C519.104,491.516,507.572,492.99,498.125,492.506z"
		/>
	<path fill="#FFFFFF" d="M434.332,473.691c-13.578,1.357-11.999,27.797,6.04,22.352
		C450.232,490.055,445.529,472.574,434.332,473.691z"/>
	<path fill="#FFFFFF" d="M343.461,183.31c0.326,3.763-0.371,6.505-1.628,8.685c-0.008,2.722,3.381,2.048,3.257,4.885
		c0.794,6.223-3.331,7.526-5.971,10.314c-14.459,60.925-25.407,124.94-38.541,185.102c0.892,2.546,4.661,2.216,7.057,3.257
		c5.823-5.213,2.731-19.344,5.971-27.141c5.511,0.823,10.841,1.826,14.657,4.343c-8.302,22.046-11.887,47.184-17.914,72.738
		c-4.369,18.525-8.085,36.678-10.856,57.539c-5.955-0.197-10.552-1.752-14.657-3.801c-0.585-8.389,5.738-17.393,8.143-27.141
		c1.146-4.648,2.156-9.828,1.628-14.656c-0.933-1.059-2.811-1.17-4.885-1.086c-3.083,3.367-0.954,8.318-1.629,11.941
		c-2.373,12.734-21.815,23.43-23.341,36.912c-0.617,5.455,2.171,11.879,2.171,18.998c0,2.332-0.212,5.334-0.542,7.6
		c-3.962,27.184-10.105,57.039-14.113,84.682c-8.622,3.217-22.246,1.102-34.198,1.627c-13.542,0.596-27.554,1.131-39.625,0
		c0.941-10.197,6.889-18.279,11.399-26.598c10.97-20.23,22.132-39.771,34.198-60.797c2.298-4.004,6.057-8.389,7.057-11.941
		c1.353-4.809-0.248-9.92,1.085-14.656c3.175-11.285,16.941-12.924,23.884-20.627c-17.695-3.219-10.908-32.848,7.057-30.941
		c5.398-19.57,9.5-40.438,13.57-61.339c0.88-1.109,4.005,0.025,4.885-1.085c3.463-20.204,9.494-40.767,13.571-60.796
		c1.904-9.353,2.387-18.858,6.514-27.141c1.166-1.005,3.977-0.366,5.971-0.542c5.842-11.709,6.113-28.99,10.856-41.797
		c3.689-20.947,9.255-45.859,13.57-66.766c0.862-4.184,1.812-9.642,4.341-11.942C338.596,182.023,341.614,182.081,343.461,183.31z
		 M298.407,403.696c-3.733,12.911-6.997,26.296-8.685,41.253c1.802,1.455,4.2,2.314,7.6,2.172c4.108-12.9,6.589-27.43,9.228-41.797
		C303.877,404.951,300.897,402.498,298.407,403.696z M257.153,478.062c0.99-1.723,2.519-2.908,2.171-5.973
		c-1.474-2.145-6.39-0.848-6.514-4.342c0.354-2.9,4.437-2.076,7.599-2.17c0.978-1.867,2.208-4.693,1.086-7.057
		C251.141,455.98,243.962,476.988,257.153,478.062z"/>
</g>
</svg>
