<?xml version="1.0" encoding="utf-8"?>
<!-- Generator: Adobe Illustrator 15.0.2, SVG Export Plug-In  -->
<!DOCTYPE svg PUBLIC "-//W3C//DTD SVG 1.1//EN" "http://www.w3.org/Graphics/SVG/1.1/DTD/svg11.dtd" [
	<!ENTITY ns_flows "http://ns.adobe.com/Flows/1.0/">
]>
<svg version="1.1"
	 xmlns="http://www.w3.org/2000/svg" xmlns:xlink="http://www.w3.org/1999/xlink" xmlns:a="http://ns.adobe.com/AdobeSVGViewerExtensions/3.0/"
	 x="0px" y="0px" width="504px" height="216px" viewBox="-31.016 -18.984 504 216"
	 overflow="visible" enable-background="new -31.016 -18.984 504 216" xml:space="preserve">
<defs>
</defs>
<path fill-rule="evenodd" clip-rule="evenodd" d="M168.589,26.952c-4.859-7.006-11.563-13.252-23.569-12.416
	c-0.347-4.002-0.353-9.466,0-13.468c2.102-1.924,4.787-0.723,7.997-0.421c7.25,0.683,15.383,5.881,20.202,10.732
	c1.516,1.527,4.459,4.372,4.418,5.682c-0.041,1.396-3.208,4.16-4.208,5.261C171.676,24.253,170.333,25.606,168.589,26.952z"/>
<path fill-rule="evenodd" clip-rule="evenodd" d="M263.917,0.648c0.76,2.045,3.365,2.247,5.261,3.156
	c0.214,15.877-0.258,28.579,0.21,44.192c1.953,1.415,4.961,1.773,7.576,2.525c0.982,2.805-0.196,7.772,0.842,10.522
	c3.691,2.902,11.273,1.915,16.625,3.156c0.803,4.032-0.884,9.224,1.052,12.206c-1.87,1.294-0.213,2.593-1.052,4.419
	c-0.67,1.458-3.27,2.476-4.63,2.524c-4.452,0.162-8.852-4.882-12.837-4.629c-2.209-2.217-6.985-2.374-7.996,1.052
	c-0.684,2.315,0.353,4.868-0.422,7.576c-2.668-0.559-1.279-5.174-2.946-6.734c-3.912-1.212-5.438,1.69-6.522,3.999
	c-0.562,0-1.123,0-1.684,0c-0.392-2.459-1.35-4.741-1.053-6.734c-0.234-0.536-1.627,0.084-1.894-0.421
	c0.534-2.498-0.727-3.202-1.684-4.209c-0.245-2.35,0.884-3.325,1.684-4.629c0-6.389,0-13.078,0-19.782
	c0-7.332,0.488-15.753-0.632-21.464c1.194-5.123,0.59-13.155,0.422-18.939c-0.141-0.772-1.444-0.38-1.685-1.052
	c-0.423-0.629-0.118-1.985-0.21-2.946c1.247-0.226,1.991-0.956,2.525-1.895c1.122,0,2.245,0,3.367,0
	C258.877,0.658,261.1,0.356,263.917,0.648z M269.388,50.311c-0.272,1.494-0.507,4.505,0.211,5.682
	c1.188,0.565,3.418,0.09,3.787,1.473c-0.087,1.597-3.006,0.361-3.998,1.053c-0.492,0.555-0.034,1.435,0,2.104
	c1.363,0.646,4.74,0.646,6.103,0C277.014,55.261,275.496,49.432,269.388,50.311z"/>
<path fill-rule="evenodd" clip-rule="evenodd" d="M141.654,15.168c-9.25,3.856-16.36,10.958-17.677,22.517
	c-0.217,1.901-0.153,3.976,0,5.682c1.003,11.197,8.384,19.228,17.466,22.517c0.354,4.359,0.344,10.159,0,14.521
	c-9.153-2.143-16.213-6.596-21.465-13.258c-6.202-7.867-10.374-19.674-8.417-33.67c2.348-16.792,14.298-28.604,29.041-32.407
	c1.696-0.438,1.053,4.764,1.053,6.734C141.654,10.768,141.654,13.124,141.654,15.168z M132.184,72.408
	c4.979-0.079,4.743-9.452-0.843-8.208C126.849,65.201,127.965,72.472,132.184,72.408z"/>
<path fill-rule="evenodd" clip-rule="evenodd" d="M32.226,22.323c-2.798-2.533-5.237-5.425-9.259-6.734
	c-0.35-4.075-0.35-9.603,0-13.678c5.416-0.532,11.745,3.033,15.151,6.734c0.984,1.069,2.976,3.035,2.946,4.208
	c-0.042,1.665-3.088,3.892-4.208,5.051C35.102,19.717,34.119,21.247,32.226,22.323z"/>
<path fill-rule="evenodd" clip-rule="evenodd" d="M19.6,2.121c0,4.208,0,8.417,0,12.626c-1.955,1.552-4.424,2.59-3.999,6.523
	c-3.565,1.254-3.346,8.411,1.263,8.417c1.477,0.002,2.492-1.834,3.788-1.894c1.238-0.057,4.353,3.38,6.103,5.05
	c2.152,2.054,3.893,3.791,5.682,5.471c4.3,4.038,7.798,6.963,9.259,12.837c3.498,14.061-3.513,30.161-18.939,29.04
	c0-4.63,0-9.259,0-13.889c6.318-0.177,9.137-6.61,5.892-11.784c-1.113-1.775-3.621-3.724-5.682-5.682
	c-3.884-3.691-7.638-7.287-11.784-10.943c-4.103-3.617-8.543-7.924-9.26-14.52c-0.446-4.107,0.313-9.271,2.525-12.836
	c1.593,0.717,1.723,2,3.578,2.104c2.693,0.152,4.472-2.322,4.208-4.84c-0.136-1.297-1.113-1.953-1.683-3.157
	C12.449,2.785,16.094,1.688,19.6,2.121z"/>
<path fill-rule="evenodd" clip-rule="evenodd" d="M273.597,2.962c6.596,0.139,13.747-0.279,19.991,0.211
	c0.321,3.646,0.386,9.662,0,12.626c-6.388,0.353-14.232,0.347-20.622,0c-0.346-3.652-0.354-8.764,0-12.416
	C273.243,3.309,273.296,3.013,273.597,2.962z M286.224,9.065c-0.389-3.995-5.959-4.796-7.576-1.052
	C277.403,15.603,286.792,14.907,286.224,9.065z"/>
<path fill-rule="evenodd" clip-rule="evenodd" d="M92.201,3.384c0.382,8.503,0.21,18.258,0.21,27.988
	c0,9.618,0.653,19.444-0.631,27.356c-1.943,11.965-8.098,20.911-21.465,21.043c-0.347-4.282-0.353-10.027,0-14.31
	c1.18-1.218,2.917-1.192,4.209-2.104c1.382-0.975,2.016-2.401,3.156-3.578c4.001-13.951,0.743-38.871,2.104-56.396
	C83.541,2.997,89.053,3.105,92.201,3.384z M78.943,62.938c0,1.122,0,2.245,0,3.367c2.734,5.212,8.797,0.812,7.155-3.577
	c-0.479-1.284-2.867-2.799-4.84-1.894C80.071,61.119,79.701,62.223,78.943,62.938z"/>
<path fill-rule="evenodd" clip-rule="evenodd" d="M212.361,77.247c-0.351-3.795-0.351-9.041,0-12.836
	c2.588-0.583,4.915,0.053,7.364-0.211c11.047-1.19,19.147-10.485,20.412-20.623c0.354-2.832-0.083-6.542-0.63-9.47
	c-0.317-0.947-1.24-1.286-1.684-2.104c-0.145-0.846,0.201-1.201,0.21-1.894c-4.316-8.745-12.711-14.488-25.673-13.889
	c-0.216-3.731-0.623-9.454,0.21-12.836c9.694-0.983,18.601,1.952,25.042,6.523c6.336,4.496,10.382,10.849,13.889,17.887
	c-2.091,7.808,0.67,17.537-0.632,25.463c-0.631,3.848-4.271,8.384-6.944,11.574C237.366,72.663,227.466,78.527,212.361,77.247z
	 M241.611,29.268c5.213,0.67,6.003-9.03,0-7.997C237.436,21.989,237.386,28.724,241.611,29.268z"/>
<path fill-rule="evenodd" clip-rule="evenodd" d="M44.852,3.384c4.139,0,8.277,0,12.416,0c1.361,13.879-1.08,34.204,0.21,48.611
	c0.604,6.734,3.292,12.126,9.47,13.258c0.35,4.354,0.35,10.164,0,14.52C36.415,77.546,46.093,35.113,44.432,4.015
	C44.422,3.655,44.588,3.47,44.852,3.384z"/>
<path fill-rule="evenodd" clip-rule="evenodd" d="M97.041,3.384c3.869,0.129,8.263-0.266,11.785,0.21c0,24.621,0,49.242,0,73.863
	c-3.595,0.341-8.614,0.355-12.206,0c-0.023-23.663,0.016-49.084,0-73.443C96.611,3.655,96.776,3.47,97.041,3.384z M106.721,69.671
	c-0.174-4.334-6.177-5.354-7.577-1.052c-0.258,3.695,1.229,5.646,4.841,5.471C105.567,73.016,106.805,71.77,106.721,69.671z"/>
<path fill-rule="evenodd" clip-rule="evenodd" d="M181.636,3.384c3.729,0.128,7.98-0.265,11.364,0.21c0,24.621,0,49.242,0,73.863
	c-3.542,0.235-9.006,0.594-12.206-0.211c-1.08-1.503,0.3-3.129,0.421-4.418c0.483-5.142-0.21-11.176-0.21-17.046
	c0-16.622,0-35.377,0-51.768C181.124,3.711,181.333,3.501,181.636,3.384z"/>
<path fill-rule="evenodd" clip-rule="evenodd" d="M197.84,3.384c3.787,0,7.575,0,11.363,0c0.34,25.191,0.43,49.492,0,74.284
	c-3.938-0.129-8.403,0.267-11.995-0.21c-0.457-24.353,0.235-48.875,0-73.653C197.363,3.608,197.591,3.485,197.84,3.384z
	 M202.469,73.249c5.517,0.783,5.529-9.477-0.421-8.207C197.826,65.944,198.491,72.684,202.469,73.249z"/>
<path fill-rule="evenodd" clip-rule="evenodd" d="M293.588,30.74c0.5,3.027,0.081,9.293,0.211,12.626
	c-5.106,0.926-12.943-0.878-17.046,1.052c-0.744-0.938-2.67-0.697-3.998-1.052c0-4.139,0-8.277,0-12.416
	C277.918,30.067,286.375,31.109,293.588,30.74z"/>
<path fill-rule="evenodd" clip-rule="evenodd" d="M145.02,80.825c-0.343-4.222-0.354-9.879,0-14.1
	c11.974,1.015,18.406-5.291,23.358-11.995c1.887,1.189,3.099,2.701,4.841,4.629c1.014,1.123,4.214,3.817,4.208,5.261
	c-0.005,1.41-2.946,3.789-4.419,5.261c-1.866,1.866-2.954,3.28-4.84,4.63C161.886,79.007,154.648,81.372,145.02,80.825z
	 M155.121,71.986c0.743,3.346,6.108,3.89,7.366,0.632C164.471,64.784,153.629,65.258,155.121,71.986z"/>
<path fill-rule="evenodd" clip-rule="evenodd" d="M19.6,66.515c-0.263,4.437,0.536,9.936-0.421,13.678
	c-8.071,0.183-14.693-5.547-17.676-12.416c-0.581-1.337-1.697-3.36-1.473-4.419c0.217-1.028,8.016-6.134,9.891-7.155
	C12.344,60.443,14.989,64.461,19.6,66.515z"/>
<path fill-rule="evenodd" clip-rule="evenodd" fill="#EE2C27" d="M106.3,157.003c1.613,2.626,3.416,4.961,5.26,7.365
	c1.741,2.27,4.088,4.359,5.051,7.365c-3.487,1.295-10.796,0.491-14.31,0.422c-2.582-1.697-3.45-5.107-5.892-6.945
	c-6.781,3.532-16.765,5.34-25.884,2.946c-13.791-3.619-24.778-17.696-26.726-33.038c-1.755-13.828,3.013-24.757,9.68-32.618
	c7.286-8.592,20.761-15.728,36.195-11.154c12.084,3.583,21.479,14.251,24.832,26.306C118.5,132.011,114.918,147.136,106.3,157.003z
	 M56.637,128.384c1.704,0.796,5.532,0.44,7.576,0.21c1.832-8.198,5.541-14.521,14.52-15.572c0.867-2.871,0.779-6.861,0-9.048
	C65.105,105.708,57.553,114.639,56.637,128.384z M81.679,103.974c-0.654,2.308-0.682,6.957,0,9.259
	c8.715,1.035,11.972,7.528,13.889,15.361c2.022,0.342,5.343,0.342,7.365,0C103.468,115.198,92.812,105.14,81.679,103.974z
	 M105.668,106.708c-2.149-1.515-5.318-0.375-5.892,2.315c-0.751,3.523,1.255,4.958,3.577,5.682
	C107.448,114.419,108.535,108.729,105.668,106.708z M66.527,128.173c1.594,1.143,5.031,0.44,7.576,0.632
	c1.276-2.161,2.819-4.056,5.05-5.261c0.002-2.357,0.314-5.81-0.21-7.997C71.521,115.633,67.887,121.323,66.527,128.173z
	 M81.679,115.336c-0.748,2.094-0.476,6.21-0.21,8.628c1.83,1.117,3.001,2.891,3.999,4.841c2.48-0.256,6.077,0.605,7.576-0.632
	C92.062,121.087,88.413,116.669,81.679,115.336z M57.268,130.909c-0.303,0.117-0.514,0.328-0.631,0.631
	c0.07,0.883-0.092,1.926,0,2.735c0.928,8.202,7.483,16.357,14.941,19.571c2.074,0.894,4.736,1.116,7.155,1.474
	c0.999-2.237,0.469-7.078,0.21-8.839c-8.594-1.366-12.91-7.012-14.52-15.362C62.39,130.698,59.632,131,57.268,130.909z
	 M67.58,130.909c-0.211-0.001-0.251,0.17-0.421,0.21c-0.884,5.671,5.63,13.296,11.784,12.626c0.485-1.917,0.308-5.453,0.21-8.206
	c-2.337-0.819-3.477-2.836-4.84-4.63C72.069,130.909,69.824,130.909,67.58,130.909z M85.256,131.119
	c-1.308,1.179-2.38,3.854-3.999,4.42c0.217,2.729-0.473,6.364,0.421,8.417c6.438-1.351,10.905-5.787,10.943-12.837
	C90.417,131.152,86.233,130.239,85.256,131.119z M95.357,131.119c-1.656,7.954-5.517,13.704-13.679,15.151
	c-0.671,2.142-0.671,6.697,0,8.839c1.282-0.239,2.698-0.097,3.999-0.421c9.152-2.281,17.536-12.335,17.256-23.569
	C100.824,130.758,97.474,130.805,95.357,131.119z"/>
<path fill-rule="evenodd" clip-rule="evenodd" d="M41.696,102.71c-2.714,3.529-5.789,6.698-9.049,9.68
	c-1.152-0.348-2.329-2.42-3.367-3.577c1.031-1.226,1.993-2.034,1.894-3.998c-0.259-5.13-7.677-4.998-7.997,0.632
	c-0.845-3.799-0.414-9.948-0.21-14.101C32.179,92.166,37.827,96.549,41.696,102.71z"/>
<path fill-rule="evenodd" clip-rule="evenodd" d="M18.968,91.557c1.131,1.465,0.632,3.954,0.632,6.314c0,2.312,0,4.87,0,6.943
	c-2.359,1.665-4.67,3.901-3.367,7.366c0.606,1.611,3.331,3.674,5.05,5.26c3.793,3.5,6.904,6.53,10.522,9.892
	c3.19,2.963,6.192,5.013,8.417,8.627c6.127,15.119,0.666,35.183-17.256,34.513c-0.487-4.283-0.073-9.468-0.21-14.1
	c3.202-0.937,6.299-1.979,7.365-5.051c0.337-2.771-0.248-5.639-1.473-7.154c-2-2.477-4.886-4.81-7.575-7.366
	c-2.428-2.308-4.954-4.715-7.576-7.154c-5.252-4.886-11.326-9.905-11.574-18.098c-0.048-1.579,0.292-4.476,0.631-6.313
	c1.084-5.877,5.326-9.632,10.101-12.415C14.902,92.541,16.616,91.729,18.968,91.557z M5.29,103.131
	c0.834,4.372,7.843,4.133,7.786-1.052c-0.028-2.598-1.825-4.31-4.629-3.787C5.831,98.777,4.819,100.664,5.29,103.131z"/>
<path fill-rule="evenodd" clip-rule="evenodd" d="M131.762,92.82c0,8.277,0,18.685,0,29.04c0,14.859-2.019,30.687,9.681,33.039
	c-0.141,4.629,0.28,9.819-0.21,14.1c-7.337,0.587-12.839-4.267-16.625-8.629c-7.75-12.148-5.682-35.518-5.682-56.187
	c0-3.792-0.311-9.385,0.421-11.363C122.306,92.529,128.14,92.432,131.762,92.82z M124.608,109.655
	c-3.955,1.488-2.471,8.99,2.525,7.996c1.315-0.262,1.799-1.471,2.735-2.525C130.86,110.746,127.324,108.633,124.608,109.655z"/>
<path fill-rule="evenodd" clip-rule="evenodd" d="M166.696,92.82c0.349,5.895,0.352,13.255,0,19.149
	c-0.238,0.884-2.079,0.165-2.736,0.631c-3.471,1.724-2.553,9.24,2.946,7.997c0.24,18.985,0.977,36.265-9.26,44.612
	c-1.16,0.947-2.286,2.318-2.946,2.736c-2.818,1.782-6.59,1.119-10.311,1.473c0.07-5.06-0.117-10.599,0-14.52
	c1.728-0.798,3.798-1.253,5.261-2.315c0.482-2.395,2.397-3.75,3.156-6.103c1.148-3.56,0.459-7.729,0.421-11.995
	c-0.014-1.615,0.69-3.144,0.842-4.84c0.434-4.857-0.325-10.137,0-15.152c1.275-0.824,2.856-1.243,3.367-2.735
	c0.984-2.874-1.108-5.35-3.367-6.312c0.141-4.14-0.28-8.838,0.21-12.626C157.961,92.482,163.017,92.463,166.696,92.82z"/>
<path fill-rule="evenodd" clip-rule="evenodd" d="M207.941,92.609c8.593,24.678,17.912,49.087,26.305,74.495
	c-4.66-0.261-9.297,0.454-13.468,0c-8.975-24.417-17.603-50.297-26.305-74.284C198.545,92.332,203.519,92.746,207.941,92.609z
	 M200.365,94.714c-1.561,0.613-2.258,2.498-2.104,5.261c0.974,1.621,2.015,3.175,5.05,2.735
	C207.883,100.779,205.495,92.699,200.365,94.714z"/>
<path fill-rule="evenodd" clip-rule="evenodd" d="M237.824,92.609c3.721,0.135,7.99-0.275,11.363,0.211
	c0.487,9.191,0.072,19.287,0.21,28.83c-1.021,1.013-2.768,1.3-3.367,2.735c-1.146,3.71,1.142,5.705,3.367,6.733
	c-0.138,11.928,0.277,24.407-0.21,35.985c-4.433-0.209-7.461,0.734-11.574,0.21c-0.379-8.924-0.21-20.993-0.21-31.355
	c0-3.663-0.737-8.114,0-10.521c0.513-1.678,2.62-2.404,2.734-4.208c0.175-2.723-1.662-3.536-2.734-4.841c0-7.716,0-15.433,0-23.148
	C237.393,92.879,237.558,92.695,237.824,92.609z"/>
<path fill-rule="evenodd" clip-rule="evenodd" d="M285.171,149.638c-0.097,1.026,0.221,2.465-0.21,3.157
	c-1.935,3.537-5.774,5.168-7.997,8.416c-4.248,1.289-7.896,3.881-12.626,4.841c-3.565,0.725-7.347,0.97-11.995,0.842
	c-0.664-3.421-0.724-9.635,0-13.047c2.896-0.507,5.896-0.019,9.049-0.631c4.206-0.818,9.198-3.742,11.994-6.523
	c0.921-0.915,2.31-2.695,2.736-3.578c0.785-1.62,0.531-3.604,2.315-4.419c1.917-5.613,2.524-11.701,0.631-16.625
	c-0.465-1.208-1.46-1.766-2.104-2.945c-0.482-0.885-0.468-1.959-0.842-2.736c-3.146-6.529-12.761-11.58-23.989-10.942
	c-0.486-3.723-0.074-8.344-0.211-12.417c0.154-0.195,0.383-0.318,0.631-0.42c9.654-0.535,16.903,1.334,22.307,5.051
	c0.738,0.104,1.37,0.313,2.315,0.211c-0.095,1.116,0.433,1.242,0.842,1.683c1.688,1.82,3.792,3.175,5.471,5.051
	c4.549,5.083,8.746,12.301,9.47,21.464c0.596,7.545-1.048,14.824-3.998,20.834C287.18,147.297,286.047,148.339,285.171,149.638z
	 M280.332,149.638c4.923-0.111,4.863-9.415-1.053-8.207C274.978,142.648,276.063,149.734,280.332,149.638z"/>
<path fill-rule="evenodd" clip-rule="evenodd" d="M191.948,99.765c0.245-0.035,0.375,0.046,0.421,0.21
	c2.405,5.872,4.187,12.367,6.523,18.309c-1.803,6.615-4.979,12.977-6.312,19.359c2.729,1.244,8.718,0.361,13.047,0.631
	c1.488,4.265,3.227,8.277,4.419,12.838c-6.98,0.218-14.984-0.217-22.307,0.21c-2.623,4.672-3.855,10.734-6.103,15.783
	c-4.217,0.008-10.098,0.11-13.047,0.421c-0.438-2.997,1.392-5.717,2.314-8.418c2.903-8.495,5.794-16.836,8.838-25.253
	C183.875,122.433,187.824,110.935,191.948,99.765z"/>
<path fill-rule="evenodd" clip-rule="evenodd" d="M19.389,155.53c0.34,4.444,0.355,10.289,0,14.73
	c-8.601-0.719-14.708-5.294-17.676-12.206c-0.54-1.256-1.646-3.923-1.473-4.839c0.222-1.181,2.967-2.756,4.419-3.789
	c2.159-1.535,3.9-2.288,5.261-3.577C12.955,149.198,14.124,154.412,19.389,155.53z"/>
<path fill="#EE2C27" d="M356.883,147.911c6.872,10.303,18.648,16.93,31.898,16.93c21.349,0,38.522-17.174,38.522-38.521
	c0-20.854-16.439-37.54-37.051-38.524h-26.986l47.353-70.417h-53.736V3.885h70.421v12.019l-39.014,58.398h0.491
	c28.952,0,52.265,23.063,52.265,52.018c0,28.952-23.312,52.26-52.265,52.26c-18.153,0-34.104-9.321-43.428-23.308L356.883,147.911z"
	/>
<path fill-rule="evenodd" clip-rule="evenodd" fill="#EE2C27" d="M352.007,6.395c0.66,1.172-0.671,1.994-0.431,3.442
	c-0.146,1.149,1.291,0.716,1.291,1.72c0.033,2.185-1.248,3.053-2.581,3.872c-5.51,24.175-10.02,49.35-15.273,73.782
	c0.716,0.79,2.043,0.971,3.228,1.291c1.827-2.546,1.527-7.22,2.15-10.971c1.894,0.472,3.651,1.081,5.594,1.506
	c-3.491,10.514-5.382,21.731-7.744,33.125c-1.252,6.029-3.214,12.015-3.442,18.5c-2.406,0.039-3.954-0.779-5.808-1.291
	c0.833-6.051,4.046-9.721,4.087-16.564c-0.437-0.493-1.286-0.576-2.15-0.645c-1.341,1.422-0.521,3.389-0.86,4.948
	c-0.42,1.923-2.242,4.041-3.442,5.593c-1.699,2.198-5.53,5.799-5.809,9.25c-0.126,1.583,0.705,2.964,0.862,4.517
	c0.139,1.39,0.11,2.969,0,4.302c-0.284,3.385-0.957,6.91-1.508,10.325c-1.326,8.239-2.962,16.178-4.302,24.737
	c-8.902,0.777-19.651,0.854-28.824,0.646c0.245-3.868,2.569-7.129,4.302-10.325c4.358-8.035,8.845-15.793,13.553-24.092
	c0.901-1.589,2.306-3.052,2.797-4.518c1.212-3.624,0.145-7.341,2.58-9.68c2.089-2.007,6.079-1.968,7.314-4.733
	c-1.079-1.312-2.838-1.012-3.657-2.365c-1.926-3.182,1.021-7.379,2.798-9.033c1.396-0.181,2.541-0.613,3.87-0.861
	c1.958-7.724,3.75-15.608,5.163-23.876c0.405-0.527,1.405-0.459,1.937-0.86c2.983-11.285,4.764-23.773,7.959-34.847
	c3.272,0.85,3.593-2.044,4.517-6.454c2.271-10.84,5.554-24.596,7.529-34.632c0.563-2.859,0.45-4.456,1.29-6.453
	C350.225,5.738,351.562,5.621,352.007,6.395z M334.153,93.297c-1.052,5.479-3.333,10.861-3.013,16.993
	c0.766,0.588,2.229,0.668,3.229,0.431c1.146-5.45,2.382-10.812,3.441-16.347C337.086,93.52,335.853,93.175,334.153,93.297z
	 M315.008,121.476c0.944,0.706,1.708,1.591,3.442,1.507c0.424-0.654,0.518-1.634,0.43-2.797c-0.578-0.569-2.116-0.178-2.367-1.075
	c0.034-1.662,1.423-0.652,2.798-0.86c0.504-0.787,0.934-1.648,0.859-3.012C316.46,114.499,314.809,117.595,315.008,121.476z"/>
<path fill-rule="evenodd" clip-rule="evenodd" fill="#EE2C27" d="M410.756,147.797c1.485,2.148,3.146,4.061,4.843,6.027
	c1.604,1.856,3.766,3.567,4.65,6.026c-3.21,1.059-9.94,0.402-13.176,0.345c-2.378-1.388-3.177-4.179-5.425-5.684
	c-6.244,2.892-15.438,4.37-23.835,2.411c-12.699-2.96-22.815-14.479-24.608-27.034c-1.616-11.314,2.774-20.257,8.913-26.689
	c6.708-7.029,19.117-12.869,33.329-9.127c11.127,2.932,19.778,11.661,22.865,21.524C421.99,127.348,418.692,139.723,410.756,147.797
	z M365.025,124.378c1.569,0.651,5.096,0.361,6.977,0.173c1.687-6.708,5.102-11.883,13.369-12.742c0.799-2.349,0.718-5.615,0-7.403
	C372.824,105.824,365.869,113.132,365.025,124.378z M388.084,104.405c-0.603,1.888-0.627,5.691,0,7.576
	c8.025,0.847,11.024,6.159,12.789,12.569c1.861,0.279,4.92,0.279,6.782,0C408.148,113.589,398.335,105.359,388.084,104.405z
	 M410.174,106.642c-1.979-1.238-4.897-0.307-5.425,1.896c-0.692,2.883,1.155,4.057,3.293,4.649
	C411.813,112.952,412.813,108.296,410.174,106.642z M374.132,124.206c1.468,0.935,4.633,0.36,6.977,0.517
	c1.174-1.768,2.595-3.318,4.65-4.305c0.002-1.929,0.29-4.754-0.194-6.543C378.731,113.945,375.384,118.602,374.132,124.206z
	 M388.084,113.702c-0.688,1.713-0.438,5.081-0.194,7.06c1.686,0.915,2.765,2.366,3.682,3.961c2.284-0.209,5.596,0.497,6.977-0.517
	C397.645,118.408,394.285,114.793,388.084,113.702z M365.607,126.445c-0.279,0.097-0.473,0.269-0.582,0.517
	c0.065,0.722-0.084,1.576,0,2.237c0.855,6.712,6.892,13.387,13.759,16.016c1.909,0.731,4.36,0.912,6.587,1.205
	c0.921-1.83,0.432-5.791,0.194-7.232c-7.913-1.118-11.888-5.737-13.369-12.57C370.324,126.273,367.784,126.521,365.607,126.445z
	 M375.102,126.445c-0.194-0.001-0.231,0.139-0.388,0.172c-0.813,4.64,5.184,10.88,10.851,10.331
	c0.446-1.568,0.284-4.463,0.194-6.714c-2.152-0.671-3.202-2.32-4.456-3.789C379.236,126.445,377.168,126.445,375.102,126.445z
	 M391.378,126.617c-1.204,0.963-2.191,3.153-3.682,3.617c0.2,2.231-0.436,5.207,0.388,6.887c5.928-1.104,10.041-4.735,10.076-10.504
	C396.13,126.644,392.278,125.896,391.378,126.617z M400.679,126.617c-1.525,6.509-5.078,11.214-12.595,12.397
	c-0.618,1.753-0.618,5.479,0,7.233c1.181-0.196,2.484-0.079,3.682-0.345c8.428-1.866,16.147-10.093,15.89-19.286
	C405.713,126.321,402.628,126.36,400.679,126.617z"/>
</svg>
