<?xml version="1.0" encoding="utf-8"?>
<!-- Generator: Adobe Illustrator 15.0.2, SVG Export Plug-In  -->
<!DOCTYPE svg PUBLIC "-//W3C//DTD SVG 1.1//EN" "http://www.w3.org/Graphics/SVG/1.1/DTD/svg11.dtd" [
	<!ENTITY ns_flows "http://ns.adobe.com/Flows/1.0/">
]>
<svg version="1.1"
	 xmlns="http://www.w3.org/2000/svg" xmlns:xlink="http://www.w3.org/1999/xlink" xmlns:a="http://ns.adobe.com/AdobeSVGViewerExtensions/3.0/"
	 x="0px" y="0px" width="504px" height="216px" viewBox="-95.477 -14.946 504 216"
	 overflow="visible" enable-background="new -95.477 -14.946 504 216" xml:space="preserve">
<defs>
</defs>
<path fill-rule="evenodd" clip-rule="evenodd" fill="#FFFFFF" d="M179.752,28.737c-5.182-7.47-12.329-14.13-25.129-13.238
	c-0.37-4.267-0.377-10.093,0-14.36c2.24-2.051,5.103-0.771,8.525-0.448c7.729,0.728,16.401,6.271,21.54,11.442
	c1.616,1.628,4.754,4.662,4.71,6.059c-0.043,1.488-3.42,4.435-4.486,5.609C183.044,25.859,181.61,27.302,179.752,28.737z"/>
<path fill-rule="evenodd" clip-rule="evenodd" fill="#FFFFFF" d="M281.393,0.691c0.81,2.18,3.587,2.395,5.608,3.365
	c0.229,16.928-0.274,30.472,0.225,47.119c2.082,1.508,5.289,1.891,8.078,2.692c1.047,2.991-0.21,8.287,0.896,11.219
	c3.937,3.094,12.021,2.042,17.727,3.365c0.855,4.299-0.942,9.834,1.121,13.014c-1.993,1.379-0.227,2.765-1.121,4.712
	c-0.715,1.555-3.486,2.639-4.937,2.691c-4.748,0.173-9.438-5.205-13.687-4.935c-2.355-2.363-7.448-2.531-8.526,1.122
	c-0.729,2.468,0.376,5.19-0.45,8.078c-2.844-0.595-1.363-5.516-3.141-7.18c-4.171-1.292-5.799,1.803-6.954,4.263
	c-0.6,0-1.197,0-1.795,0c-0.419-2.622-1.439-5.055-1.123-7.18c-0.25-0.572-1.734,0.09-2.019-0.449
	c0.569-2.663-0.775-3.415-1.796-4.488c-0.261-2.505,0.943-3.545,1.796-4.936c0-6.812,0-13.943,0-21.091
	c0-7.817,0.521-16.796-0.675-22.886c1.273-5.462,0.63-14.026,0.45-20.193c-0.149-0.823-1.54-0.405-1.796-1.122
	c-0.451-0.67-0.126-2.117-0.225-3.141c1.33-0.24,2.123-1.019,2.693-2.021c1.197,0,2.394,0,3.59,0
	C276.018,0.702,278.388,0.379,281.393,0.691z M287.226,53.643c-0.29,1.593-0.541,4.803,0.225,6.058
	c1.267,0.603,3.645,0.096,4.037,1.57c-0.092,1.702-3.204,0.384-4.262,1.122c-0.525,0.592-0.037,1.53,0,2.244
	c1.452,0.688,5.054,0.688,6.506,0C295.355,58.92,293.737,52.705,287.226,53.643z"/>
<path fill-rule="evenodd" clip-rule="evenodd" fill="#FFFFFF" d="M151.033,16.172c-9.863,4.112-17.444,11.684-18.847,24.007
	c-0.231,2.028-0.164,4.239,0,6.059c1.068,11.938,8.938,20.5,18.621,24.007c0.379,4.648,0.367,10.832,0,15.482
	c-9.759-2.284-17.286-7.032-22.886-14.136c-6.612-8.388-11.061-20.977-8.975-35.899c2.503-17.904,15.244-30.497,30.963-34.553
	c1.809-0.466,1.123,5.08,1.123,7.18C151.033,11.481,151.033,13.992,151.033,16.172z M140.937,77.202
	c5.309-0.084,5.057-10.077-0.899-8.751C135.248,69.518,136.438,77.271,140.937,77.202z"/>
<path fill-rule="evenodd" clip-rule="evenodd" fill="#FFFFFF" d="M34.36,23.801c-2.983-2.701-5.584-5.785-9.873-7.18
	c-0.374-4.345-0.374-10.239,0-14.584c5.775-0.567,12.522,3.233,16.155,7.18c1.049,1.14,3.173,3.236,3.141,4.487
	c-0.045,1.775-3.292,4.15-4.487,5.385C37.426,21.022,36.377,22.653,34.36,23.801z"/>
<path fill-rule="evenodd" clip-rule="evenodd" fill="#FFFFFF" d="M20.898,2.261c0,4.487,0,8.975,0,13.462
	c-2.085,1.655-4.718,2.762-4.264,6.955c-3.801,1.337-3.567,8.968,1.346,8.975c1.575,0.003,2.657-1.955,4.039-2.019
	c1.321-0.06,4.641,3.604,6.507,5.385c2.294,2.19,4.15,4.042,6.058,5.833c4.584,4.306,8.314,7.425,9.873,13.688
	c3.729,14.992-3.746,32.158-20.194,30.962c0-4.936,0-9.872,0-14.808c6.737-0.189,9.742-7.048,6.283-12.565
	c-1.188-1.892-3.861-3.97-6.058-6.058c-4.141-3.936-8.144-7.769-12.564-11.667c-4.375-3.857-9.109-8.449-9.873-15.481
	c-0.475-4.379,0.333-9.885,2.692-13.687c1.698,0.765,1.837,2.132,3.814,2.243c2.872,0.162,4.769-2.475,4.488-5.16
	c-0.145-1.383-1.187-2.082-1.795-3.366C13.272,2.969,17.159,1.799,20.898,2.261z"/>
<path fill-rule="evenodd" clip-rule="evenodd" fill="#FFFFFF" d="M291.714,3.159c7.031,0.148,14.656-0.297,21.314,0.225
	c0.342,3.888,0.411,10.301,0,13.462c-6.812,0.376-15.176,0.37-21.988,0c-0.368-3.895-0.377-9.345,0-13.238
	C291.335,3.528,291.393,3.212,291.714,3.159z M305.176,9.666c-0.415-4.26-6.354-5.115-8.078-1.123
	C295.771,16.636,305.782,15.895,305.176,9.666z"/>
<path fill-rule="evenodd" clip-rule="evenodd" fill="#FFFFFF" d="M98.306,3.608c0.407,9.066,0.224,19.467,0.224,29.841
	c0,10.255,0.697,20.732-0.673,29.168c-2.071,12.757-8.634,22.295-22.886,22.437c-0.371-4.566-0.377-10.691,0-15.257
	c1.258-1.298,3.109-1.271,4.487-2.244c1.473-1.04,2.149-2.561,3.365-3.814c4.266-14.875,0.792-41.444,2.244-60.131
	C89.072,3.195,94.949,3.311,98.306,3.608z M84.17,67.105c0,1.196,0,2.393,0,3.59c2.915,5.557,9.379,0.865,7.628-3.814
	c-0.511-1.369-3.057-2.985-5.161-2.02C85.373,65.166,84.978,66.343,84.17,67.105z"/>
<path fill-rule="evenodd" clip-rule="evenodd" fill="#FFFFFF" d="M226.422,82.361c-0.374-4.046-0.374-9.64,0-13.686
	c2.759-0.621,5.241,0.056,7.852-0.225c11.778-1.269,20.416-11.179,21.764-21.988c0.377-3.02-0.088-6.976-0.672-10.097
	c-0.338-1.01-1.322-1.372-1.795-2.244c-0.153-0.902,0.215-1.281,0.224-2.019c-4.602-9.324-13.552-15.447-27.372-14.809
	c-0.23-3.979-0.664-10.08,0.225-13.686c10.335-1.049,19.832,2.081,26.699,6.955c6.756,4.794,11.069,11.567,14.809,19.072
	c-2.229,8.324,0.714,18.698-0.673,27.148c-0.674,4.103-4.556,8.94-7.405,12.341C253.083,77.474,242.527,83.727,226.422,82.361z
	 M257.608,31.206c5.558,0.715,6.401-9.627,0-8.527C253.157,23.445,253.104,30.625,257.608,31.206z"/>
<path fill-rule="evenodd" clip-rule="evenodd" fill="#FFFFFF" d="M47.822,3.608c4.413,0,8.825,0,13.238,0
	c1.452,14.798-1.151,36.468,0.225,51.83c0.644,7.18,3.51,12.929,10.097,14.136c0.373,4.643,0.373,10.837,0,15.481
	C38.826,82.681,49.145,37.438,47.373,4.28C47.363,3.897,47.54,3.7,47.822,3.608z"/>
<path fill-rule="evenodd" clip-rule="evenodd" fill="#FFFFFF" d="M103.466,3.608c4.125,0.138,8.81-0.284,12.565,0.225
	c0,26.251,0,52.502,0,78.754c-3.833,0.364-9.185,0.379-13.014,0c-0.024-25.23,0.017-52.335,0-78.306
	C103.007,3.897,103.184,3.7,103.466,3.608z M113.787,74.285c-0.186-4.621-6.586-5.708-8.078-1.122
	c-0.275,3.94,1.311,6.02,5.162,5.833C112.557,77.851,113.877,76.522,113.787,74.285z"/>
<path fill-rule="evenodd" clip-rule="evenodd" fill="#FFFFFF" d="M193.662,3.608c3.978,0.137,8.51-0.283,12.117,0.225
	c0,26.251,0,52.502,0,78.754c-3.775,0.25-9.602,0.633-13.014-0.225c-1.152-1.603,0.319-3.336,0.449-4.71
	c0.515-5.482-0.225-11.916-0.225-18.175c0-17.723,0-37.72,0-55.196C193.116,3.957,193.34,3.733,193.662,3.608z"/>
<path fill-rule="evenodd" clip-rule="evenodd" fill="#FFFFFF" d="M210.939,3.608c4.038,0,8.077,0,12.116,0
	c0.362,26.858,0.458,52.769,0,79.202c-4.199-0.137-8.959,0.285-12.79-0.224c-0.486-25.965,0.251-52.11,0-78.531
	C210.432,3.847,210.674,3.716,210.939,3.608z M215.875,78.099c5.882,0.835,5.896-10.104-0.449-8.75
	C210.925,70.311,211.633,77.497,215.875,78.099z"/>
<path fill-rule="evenodd" clip-rule="evenodd" fill="#FFFFFF" d="M313.028,32.775c0.532,3.229,0.085,9.909,0.225,13.463
	c-5.444,0.988-13.801-0.936-18.175,1.122c-0.794-1-2.846-0.743-4.263-1.122c0-4.413,0-8.825,0-13.238
	C296.32,32.058,305.338,33.169,313.028,32.775z"/>
<path fill-rule="evenodd" clip-rule="evenodd" fill="#FFFFFF" d="M154.623,86.177c-0.366-4.501-0.379-10.533,0-15.034
	c12.766,1.082,19.624-5.641,24.904-12.789c2.011,1.268,3.304,2.88,5.161,4.935c1.08,1.198,4.492,4.07,4.487,5.61
	c-0.006,1.503-3.143,4.039-4.713,5.609c-1.988,1.99-3.148,3.497-5.16,4.936C172.605,84.239,164.888,86.759,154.623,86.177z
	 M165.392,76.752c0.792,3.567,6.513,4.147,7.854,0.673C175.361,69.073,163.802,69.579,165.392,76.752z"/>
<path fill-rule="evenodd" clip-rule="evenodd" fill="#FFFFFF" d="M20.898,70.919c-0.281,4.73,0.571,10.594-0.45,14.583
	c-8.605,0.195-15.667-5.914-18.847-13.238c-0.62-1.425-1.81-3.583-1.57-4.711c0.231-1.096,8.546-6.541,10.545-7.629
	C13.161,64.445,15.981,68.73,20.898,70.919z"/>
<path fill-rule="evenodd" clip-rule="evenodd" fill="#FFFFFF" d="M113.339,167.398c1.72,2.801,3.642,5.29,5.608,7.854
	c1.856,2.419,4.359,4.647,5.385,7.853c-3.719,1.381-11.511,0.523-15.257,0.45c-2.754-1.811-3.679-5.445-6.282-7.405
	c-7.23,3.766-17.875,5.693-27.598,3.142c-14.704-3.859-26.418-18.868-28.495-35.226c-1.872-14.743,3.213-26.396,10.321-34.779
	c7.769-9.16,22.136-16.769,38.592-11.892c12.884,3.82,22.902,15.194,26.475,28.047C126.346,140.752,122.528,156.879,113.339,167.398
	z M60.386,136.885c1.816,0.849,5.899,0.47,8.078,0.225c1.953-8.741,5.908-15.482,15.481-16.604c0.924-3.061,0.83-7.315,0-9.646
	C69.416,112.708,61.363,122.229,60.386,136.885z M87.086,110.858c-0.697,2.461-0.727,7.418,0,9.872
	c9.292,1.104,12.765,8.026,14.809,16.379c2.155,0.363,5.696,0.363,7.853,0C110.318,122.825,98.957,112.102,87.086,110.858z
	 M112.665,113.773c-2.291-1.615-5.671-0.399-6.282,2.469c-0.801,3.758,1.338,5.286,3.814,6.059
	C114.562,121.995,115.721,115.929,112.665,113.773z M70.932,136.66c1.699,1.219,5.364,0.469,8.077,0.673
	c1.36-2.304,3.005-4.323,5.385-5.609c0.002-2.513,0.335-6.193-0.225-8.525C76.256,123.289,72.381,129.357,70.932,136.66z
	 M87.086,122.973c-0.797,2.232-0.507,6.621-0.224,9.199c1.951,1.191,3.2,3.082,4.263,5.161c2.644-0.272,6.479,0.646,8.077-0.673
	C98.157,129.105,94.267,124.395,87.086,122.973z M61.06,139.578c-0.323,0.124-0.548,0.35-0.673,0.671
	c0.075,0.942-0.098,2.055,0,2.917c0.99,8.746,7.979,17.441,15.931,20.867c2.211,0.953,5.049,1.19,7.628,1.571
	c1.065-2.386,0.5-7.546,0.225-9.424c-9.163-1.456-13.766-7.476-15.481-16.38C66.521,139.353,63.58,139.674,61.06,139.578z
	 M72.054,139.578c-0.226-0.002-0.268,0.181-0.449,0.223c-0.942,6.047,6.003,14.177,12.565,13.463
	c0.517-2.045,0.328-5.815,0.225-8.75c-2.493-0.873-3.708-3.024-5.161-4.936C76.84,139.578,74.447,139.578,72.054,139.578z
	 M90.901,139.801c-1.395,1.258-2.538,4.109-4.264,4.713c0.232,2.909-0.504,6.786,0.449,8.974
	c6.864-1.439,11.627-6.169,11.667-13.687C96.403,139.836,91.942,138.862,90.901,139.801z M101.671,139.801
	c-1.766,8.481-5.882,14.611-14.584,16.154c-0.715,2.284-0.715,7.141,0,9.425c1.367-0.255,2.877-0.103,4.264-0.448
	c9.758-2.433,18.697-13.152,18.398-25.131C107.499,139.415,103.928,139.466,101.671,139.801z"/>
<path fill-rule="evenodd" clip-rule="evenodd" fill="#FFFFFF" d="M44.457,109.512c-2.894,3.763-6.172,7.141-9.648,10.32
	c-1.229-0.371-2.482-2.58-3.59-3.814c1.1-1.308,2.125-2.169,2.02-4.263c-0.276-5.47-8.186-5.328-8.526,0.674
	c-0.901-4.051-0.441-10.607-0.224-15.034C34.309,98.269,40.331,102.942,44.457,109.512z"/>
<path fill-rule="evenodd" clip-rule="evenodd" fill="#FFFFFF" d="M20.224,97.619c1.206,1.562,0.674,4.216,0.674,6.733
	c0,2.464,0,5.191,0,7.402c-2.516,1.774-4.98,4.159-3.59,7.854c0.646,1.719,3.551,3.917,5.384,5.608
	c4.044,3.731,7.362,6.963,11.219,10.546c3.401,3.159,6.602,5.346,8.975,9.198c6.533,16.12,0.71,37.513-18.398,36.798
	c-0.52-4.566-0.078-10.095-0.225-15.033c3.414-0.998,6.717-2.109,7.853-5.384c0.359-2.956-0.264-6.014-1.57-7.629
	c-2.133-2.641-5.21-5.128-8.078-7.854c-2.588-2.46-5.282-5.026-8.078-7.627c-5.6-5.21-12.075-10.562-12.34-19.297
	c-0.051-1.683,0.312-4.771,0.673-6.731c1.156-6.266,5.678-10.27,10.77-13.237C15.888,98.669,17.715,97.803,20.224,97.619z
	 M5.64,109.96c0.89,4.662,8.362,4.406,8.301-1.122c-0.03-2.77-1.946-4.594-4.936-4.038C6.216,105.318,5.138,107.33,5.64,109.96z"/>
<path fill-rule="evenodd" clip-rule="evenodd" fill="#FFFFFF" d="M140.486,98.966c0,8.825,0,19.923,0,30.964
	c0,15.843-2.152,32.718,10.321,35.226c-0.149,4.937,0.3,10.471-0.224,15.033c-7.822,0.626-13.688-4.548-17.726-9.2
	c-8.264-12.952-6.059-37.868-6.059-59.906c0-4.043-0.33-10.007,0.449-12.116C130.403,98.656,136.625,98.552,140.486,98.966z
	 M132.858,116.916c-4.217,1.587-2.635,9.585,2.693,8.525c1.401-0.278,1.917-1.568,2.916-2.692
	C139.524,118.079,135.754,115.826,132.858,116.916z"/>
<path fill-rule="evenodd" clip-rule="evenodd" fill="#FFFFFF" d="M177.733,98.966c0.372,6.286,0.375,14.133,0,20.418
	c-0.254,0.942-2.217,0.176-2.917,0.673c-3.701,1.838-2.723,9.853,3.141,8.526c0.256,20.243,1.042,38.666-9.873,47.566
	c-1.236,1.01-2.438,2.472-3.142,2.917c-3.005,1.9-7.026,1.193-10.993,1.57c0.075-5.395-0.125-11.3,0-15.481
	c1.843-0.85,4.05-1.335,5.609-2.468c0.515-2.554,2.556-3.998,3.364-6.507c1.226-3.795,0.49-8.24,0.449-12.789
	c-0.015-1.723,0.736-3.352,0.897-5.16c0.463-5.18-0.347-10.809,0-16.156c1.36-0.879,3.047-1.324,3.592-2.916
	c1.049-3.064-1.183-5.704-3.592-6.73c0.15-4.414-0.299-9.424,0.225-13.463C168.42,98.605,173.811,98.585,177.733,98.966z"/>
<path fill-rule="evenodd" clip-rule="evenodd" fill="#FFFFFF" d="M221.71,98.741c9.161,26.312,19.098,52.337,28.046,79.429
	c-4.969-0.278-9.912,0.483-14.359,0c-9.568-26.035-18.768-53.628-28.047-79.204C211.691,98.446,216.994,98.888,221.71,98.741z
	 M213.632,100.985c-1.664,0.654-2.407,2.663-2.243,5.609c1.038,1.728,2.148,3.385,5.384,2.917
	C221.647,107.452,219.101,98.837,213.632,100.985z"/>
<path fill-rule="evenodd" clip-rule="evenodd" fill="#FFFFFF" d="M253.57,98.741c3.967,0.145,8.52-0.294,12.116,0.225
	c0.52,9.801,0.076,20.565,0.225,30.74c-1.089,1.079-2.951,1.385-3.591,2.916c-1.223,3.955,1.217,6.082,3.591,7.179
	c-0.148,12.718,0.295,26.024-0.225,38.369c-4.727-0.224-7.955,0.782-12.341,0.223c-0.403-9.515-0.223-22.383-0.223-33.432
	c0-3.905-0.787-8.651,0-11.218c0.546-1.789,2.793-2.564,2.914-4.486c0.186-2.902-1.771-3.771-2.914-5.162c0-8.227,0-16.454,0-24.681
	C253.111,99.029,253.287,98.833,253.57,98.741z"/>
<path fill-rule="evenodd" clip-rule="evenodd" fill="#FFFFFF" d="M304.053,159.546c-0.103,1.095,0.236,2.628-0.223,3.366
	c-2.062,3.772-6.157,5.51-8.526,8.973c-4.529,1.375-8.42,4.139-13.463,5.162c-3.801,0.772-7.833,1.033-12.79,0.897
	c-0.707-3.647-0.771-10.272,0-13.911c3.089-0.54,6.288-0.02,9.648-0.672c4.485-0.873,9.809-3.99,12.788-6.956
	c0.982-0.976,2.464-2.874,2.918-3.814c0.838-1.728,0.566-3.844,2.47-4.712c2.043-5.985,2.69-12.476,0.672-17.726
	c-0.495-1.289-1.556-1.882-2.243-3.141c-0.515-0.944-0.499-2.089-0.898-2.918c-3.354-6.961-13.605-12.346-25.577-11.666
	c-0.519-3.97-0.08-8.896-0.225-13.239c0.164-0.209,0.408-0.34,0.672-0.448c10.294-0.57,18.022,1.423,23.783,5.385
	c0.788,0.111,1.461,0.335,2.469,0.227c-0.1,1.189,0.462,1.324,0.898,1.793c1.799,1.94,4.042,3.386,5.833,5.385
	c4.851,5.421,9.325,13.116,10.097,22.886c0.636,8.045-1.117,15.806-4.263,22.214C306.195,157.051,304.987,158.161,304.053,159.546z
	 M298.894,159.546c5.249-0.119,5.185-10.039-1.123-8.75C293.186,152.095,294.342,159.649,298.894,159.546z"/>
<path fill-rule="evenodd" clip-rule="evenodd" fill="#FFFFFF" d="M204.657,106.37c0.261-0.037,0.399,0.05,0.448,0.225
	c2.565,6.261,4.464,13.186,6.956,19.521c-1.922,7.054-5.308,13.836-6.73,20.642c2.909,1.326,9.295,0.385,13.91,0.672
	c1.587,4.547,3.44,8.826,4.712,13.688c-7.442,0.233-15.977-0.23-23.783,0.226c-2.797,4.98-4.11,11.444-6.508,16.828
	c-4.496,0.008-10.766,0.117-13.91,0.449c-0.466-3.196,1.484-6.097,2.468-8.977c3.096-9.058,6.177-17.951,9.423-26.925
	C196.05,130.54,200.26,118.279,204.657,106.37z"/>
<path fill-rule="evenodd" clip-rule="evenodd" fill="#FFFFFF" d="M20.672,165.828c0.362,4.738,0.379,10.972,0,15.706
	c-9.17-0.767-15.682-5.645-18.846-13.014c-0.576-1.34-1.756-4.183-1.571-5.159c0.237-1.259,3.164-2.938,4.712-4.041
	c2.302-1.637,4.158-2.438,5.609-3.813C13.812,159.077,15.059,164.636,20.672,165.828z"/>
</svg>
