<?xml version="1.0" encoding="utf-8"?>
<!-- Generator: Adobe Illustrator 15.0.2, SVG Export Plug-In  -->
<!DOCTYPE svg PUBLIC "-//W3C//DTD SVG 1.1//EN" "http://www.w3.org/Graphics/SVG/1.1/DTD/svg11.dtd" [
	<!ENTITY ns_flows "http://ns.adobe.com/Flows/1.0/">
]>
<svg version="1.1"
	 xmlns="http://www.w3.org/2000/svg" xmlns:xlink="http://www.w3.org/1999/xlink" xmlns:a="http://ns.adobe.com/AdobeSVGViewerExtensions/3.0/"
	 x="0px" y="0px" width="658px" height="111px" viewBox="-7.057 -5.632 658 111"
	 overflow="visible" enable-background="new -7.057 -5.632 658 111" xml:space="preserve">
<defs>
</defs>
<path fill-rule="evenodd" clip-rule="evenodd" fill="#FFFFFF" d="M150.557,34.358c-4.34-6.257-10.327-11.835-21.048-11.088
	c-0.31-3.574-0.315-8.454,0-12.027c1.877-1.718,4.274-0.646,7.141-0.375c6.475,0.609,13.737,5.252,18.042,9.584
	c1.354,1.363,3.981,3.904,3.944,5.074c-0.036,1.247-2.864,3.715-3.757,4.698C153.313,31.948,152.113,33.156,150.557,34.358z"/>
<path fill-rule="evenodd" clip-rule="evenodd" fill="#FFFFFF" d="M235.688,10.868c0.678,1.826,3.005,2.006,4.697,2.818
	c0.191,14.179-0.229,25.522,0.188,39.466c1.744,1.262,4.43,1.582,6.766,2.254c0.877,2.506-0.176,6.941,0.751,9.396
	c3.298,2.592,10.068,1.711,14.848,2.818c0.717,3.602-0.789,8.238,0.938,10.902c-1.669,1.154-0.189,2.314-0.938,3.945
	c-0.599,1.303-2.92,2.211-4.135,2.254c-3.977,0.145-7.905-4.359-11.464-4.135c-1.973-1.979-6.238-2.119-7.142,0.941
	c-0.609,2.066,0.315,4.348-0.377,6.764c-2.382-0.496-1.142-4.619-2.63-6.012c-3.494-1.084-4.857,1.51-5.825,3.57
	c-0.502,0-1.003,0-1.503,0c-0.352-2.197-1.206-4.234-0.941-6.014c-0.209-0.479-1.452,0.076-1.69-0.377
	c0.478-2.23-0.649-2.859-1.504-3.758c-0.219-2.1,0.79-2.971,1.504-4.135c0-5.705,0-11.678,0-17.664
	c0-6.548,0.437-14.069-0.565-19.169c1.067-4.575,0.528-11.748,0.378-16.914c-0.126-0.689-1.29-0.339-1.505-0.939
	c-0.378-0.562-0.105-1.773-0.188-2.631c1.113-0.201,1.778-0.854,2.256-1.692c1.003,0,2.005,0,3.007,0
	C231.187,10.877,233.172,10.607,235.688,10.868z M240.574,55.218c-0.243,1.334-0.453,4.023,0.188,5.074
	c1.062,0.504,3.053,0.08,3.382,1.314c-0.077,1.426-2.684,0.322-3.569,0.941c-0.44,0.494-0.031,1.279,0,1.879
	c1.216,0.576,4.232,0.576,5.449,0C247.384,59.638,246.028,54.433,240.574,55.218z"/>
<path fill-rule="evenodd" clip-rule="evenodd" fill="#FFFFFF" d="M126.502,23.834c-8.261,3.444-14.61,9.787-15.785,20.109
	c-0.194,1.697-0.138,3.55,0,5.074c0.895,9.998,7.485,17.169,15.597,20.107c0.317,3.893,0.308,9.072,0,12.967
	c-8.174-1.912-14.479-5.889-19.169-11.838c-5.538-7.027-9.264-17.57-7.517-30.069c2.097-14.996,12.768-25.543,25.934-28.941
	c1.515-0.391,0.94,4.254,0.94,6.014C126.502,19.906,126.502,22.008,126.502,23.834z M118.046,74.951
	c4.446-0.07,4.235-8.439-0.754-7.33C113.281,68.515,114.278,75.009,118.046,74.951z"/>
<path fill-rule="evenodd" clip-rule="evenodd" fill="#FFFFFF" d="M28.778,30.224c-2.498-2.263-4.677-4.845-8.269-6.014
	c-0.313-3.639-0.313-8.576,0-12.215c4.837-0.475,10.489,2.708,13.531,6.014c0.879,0.955,2.657,2.71,2.631,3.758
	c-0.038,1.487-2.758,3.476-3.759,4.511C31.347,27.897,30.469,29.263,28.778,30.224z"/>
<path fill-rule="evenodd" clip-rule="evenodd" fill="#FFFFFF" d="M17.504,12.183c0,3.758,0,7.517,0,11.276
	c-1.747,1.386-3.952,2.313-3.572,5.825c-3.184,1.12-2.987,7.511,1.128,7.517c1.319,0.002,2.226-1.638,3.383-1.691
	c1.106-0.05,3.888,3.019,5.45,4.51c1.922,1.834,3.476,3.386,5.074,4.885c3.84,3.607,6.964,6.22,8.27,11.464
	c3.123,12.557-3.138,26.934-16.914,25.934c0-4.135,0-8.268,0-12.402c5.643-0.158,8.158-5.904,5.262-10.525
	c-0.995-1.584-3.234-3.324-5.074-5.072c-3.469-3.296-6.82-6.507-10.523-9.773c-3.664-3.23-7.63-7.077-8.27-12.967
	c-0.398-3.668,0.279-8.28,2.255-11.464c1.423,0.641,1.54,1.786,3.195,1.879c2.404,0.135,3.994-2.073,3.759-4.322
	c-0.121-1.158-0.994-1.744-1.503-2.819C11.117,12.775,14.372,11.796,17.504,12.183z"/>
<path fill-rule="evenodd" clip-rule="evenodd" fill="#FFFFFF" d="M244.333,12.935c5.89,0.125,12.276-0.249,17.853,0.188
	c0.287,3.257,0.345,8.628,0,11.276c-5.705,0.315-12.711,0.31-18.416,0c-0.309-3.262-0.316-7.827,0-11.087
	C244.016,13.244,244.064,12.979,244.333,12.935z M255.608,18.385c-0.347-3.568-5.321-4.284-6.766-0.94
	C247.731,24.223,256.117,23.602,255.608,18.385z"/>
<path fill-rule="evenodd" clip-rule="evenodd" fill="#FFFFFF" d="M82.339,13.311c0.341,7.594,0.188,16.305,0.188,24.994
	c0,8.589,0.584,17.364-0.563,24.431c-1.735,10.686-7.231,18.674-19.169,18.793c-0.311-3.824-0.315-8.955,0-12.779
	c1.054-1.088,2.604-1.064,3.759-1.879c1.234-0.871,1.8-2.146,2.818-3.195c3.572-12.459,0.663-34.713,1.88-50.364
	C74.605,12.965,79.527,13.062,82.339,13.311z M70.499,66.494c0,1.002,0,2.006,0,3.008c2.44,4.654,7.855,0.723,6.39-3.195
	c-0.429-1.146-2.561-2.5-4.323-1.691C71.507,64.871,71.176,65.855,70.499,66.494z"/>
<path fill-rule="evenodd" clip-rule="evenodd" fill="#FFFFFF" d="M189.646,79.273c-0.313-3.389-0.313-8.074,0-11.463
	c2.311-0.52,4.39,0.047,6.576-0.189c9.865-1.062,17.1-9.361,18.229-18.416c0.315-2.529-0.073-5.842-0.562-8.457
	c-0.283-0.846-1.107-1.149-1.504-1.88c-0.128-0.755,0.181-1.073,0.188-1.691c-3.854-7.809-11.351-12.938-22.926-12.404
	c-0.193-3.332-0.557-8.442,0.188-11.463c8.656-0.878,16.611,1.743,22.363,5.825c5.658,4.016,9.271,9.688,12.403,15.974
	c-1.867,6.972,0.598,15.661-0.563,22.739c-0.564,3.436-3.816,7.488-6.203,10.336C211.977,75.179,203.136,80.417,189.646,79.273z
	 M215.768,36.426c4.654,0.599,5.361-8.064,0-7.142C212.039,29.926,211.995,35.94,215.768,36.426z"/>
<path fill-rule="evenodd" clip-rule="evenodd" fill="#FFFFFF" d="M40.055,13.311c3.695,0,7.392,0,11.088,0
	c1.216,12.394-0.965,30.544,0.188,43.411c0.539,6.014,2.939,10.828,8.457,11.84c0.312,3.889,0.312,9.076,0,12.967
	C32.52,79.541,41.162,41.646,39.679,13.874C39.671,13.553,39.817,13.388,40.055,13.311z"/>
<path fill-rule="evenodd" clip-rule="evenodd" fill="#FFFFFF" d="M86.661,13.311c3.455,0.116,7.378-0.238,10.524,0.188
	c0,21.987,0,43.975,0,65.961c-3.211,0.305-7.693,0.318-10.9,0c-0.021-21.131,0.014-43.833,0-65.586
	C86.277,13.553,86.425,13.388,86.661,13.311z M95.306,72.507c-0.155-3.869-5.517-4.781-6.766-0.939
	c-0.231,3.301,1.098,5.041,4.323,4.887C94.275,75.496,95.381,74.382,95.306,72.507z"/>
<path fill-rule="evenodd" clip-rule="evenodd" fill="#FFFFFF" d="M162.207,13.311c3.332,0.114,7.128-0.237,10.149,0.188
	c0,21.987,0,43.975,0,65.961c-3.162,0.211-8.042,0.531-10.9-0.188c-0.965-1.344,0.268-2.795,0.377-3.945
	c0.431-4.592-0.188-9.98-0.188-15.223c0-14.844,0-31.593,0-46.231C161.75,13.604,161.938,13.416,162.207,13.311z"/>
<path fill-rule="evenodd" clip-rule="evenodd" fill="#FFFFFF" d="M176.679,13.311c3.382,0,6.765,0,10.148,0
	c0.303,22.496,0.383,44.198,0,66.337c-3.518-0.115-7.504,0.238-10.713-0.188c-0.407-21.746,0.21-43.646,0-65.774
	C176.253,13.511,176.456,13.402,176.679,13.311z M180.812,75.703c4.927,0.699,4.938-8.463-0.376-7.33
	C176.666,69.179,177.259,75.199,180.812,75.703z"/>
<path fill-rule="evenodd" clip-rule="evenodd" fill="#FFFFFF" d="M262.186,37.741c0.446,2.705,0.071,8.3,0.188,11.277
	c-4.56,0.827-11.56-0.784-15.223,0.939c-0.665-0.838-2.384-0.623-3.57-0.939c0-3.697,0-7.392,0-11.088
	C248.191,37.14,255.744,38.071,262.186,37.741z"/>
<path fill-rule="evenodd" clip-rule="evenodd" fill="#FFFFFF" d="M129.509,82.468c-0.307-3.77-0.317-8.822,0-12.592
	c10.692,0.906,16.437-4.725,20.859-10.711c1.685,1.062,2.768,2.412,4.323,4.133c0.904,1.004,3.763,3.41,3.758,4.699
	c-0.005,1.26-2.632,3.383-3.947,4.697c-1.665,1.668-2.637,2.93-4.322,4.135C144.57,80.845,138.106,82.957,129.509,82.468z
	 M138.528,74.576c0.663,2.986,5.455,3.473,6.578,0.562C146.879,68.142,137.197,68.566,138.528,74.576z"/>
<path fill-rule="evenodd" clip-rule="evenodd" fill="#FFFFFF" d="M17.504,69.689c-0.235,3.963,0.478,8.873-0.377,12.215
	C9.919,82.068,4.005,76.951,1.342,70.816c-0.519-1.193-1.516-3-1.315-3.945c0.193-0.918,7.157-5.48,8.832-6.391
	C11.022,64.267,13.386,67.855,17.504,69.689z"/>
<path fill-rule="evenodd" clip-rule="evenodd" fill="#EE2C27" d="M374.084,72.115c1.441,2.346,3.051,4.432,4.698,6.578
	c1.555,2.025,3.651,3.893,4.51,6.578c-3.114,1.156-9.641,0.438-12.778,0.377c-2.307-1.518-3.082-4.562-5.262-6.203
	c-6.057,3.154-14.973,4.77-23.115,2.631c-12.317-3.232-22.129-15.803-23.868-29.504c-1.567-12.348,2.691-22.108,8.645-29.13
	c6.507-7.672,18.541-14.045,32.325-9.96c10.791,3.2,19.182,12.727,22.174,23.491C384.979,49.797,381.781,63.304,374.084,72.115z
	 M329.732,46.559c1.521,0.711,4.941,0.393,6.766,0.188c1.636-7.321,4.948-12.968,12.967-13.908c0.774-2.563,0.695-6.127,0-8.08
	C337.296,26.308,330.551,34.283,329.732,46.559z M352.096,24.759c-0.583,2.062-0.608,6.213,0,8.269
	c7.783,0.924,10.692,6.723,12.404,13.719c1.805,0.305,4.771,0.305,6.577,0C371.555,34.782,362.039,25.8,352.096,24.759z
	 M373.521,27.201c-1.919-1.353-4.75-0.335-5.263,2.067c-0.67,3.147,1.121,4.428,3.195,5.075
	C375.108,34.087,376.079,29.006,373.521,27.201z M338.565,46.37c1.423,1.021,4.493,0.393,6.766,0.563
	c1.139-1.93,2.517-3.621,4.511-4.698c0.001-2.105,0.28-5.188-0.188-7.141C343.024,35.17,339.779,40.253,338.565,46.37z
	 M352.096,34.906c-0.668,1.87-0.425,5.545-0.188,7.705c1.634,0.998,2.681,2.581,3.57,4.323c2.215-0.229,5.428,0.541,6.767-0.563
	C361.368,40.042,358.11,36.097,352.096,34.906z M330.297,48.814c-0.271,0.104-0.459,0.293-0.564,0.562
	c0.062,0.789-0.081,1.721,0,2.442c0.829,7.326,6.684,14.609,13.343,17.479c1.852,0.799,4.229,0.998,6.39,1.316
	c0.892-1.998,0.419-6.32,0.188-7.893c-7.675-1.221-11.53-6.262-12.967-13.72C334.87,48.625,332.407,48.895,330.297,48.814z
	 M339.506,48.814c-0.189-0.002-0.225,0.15-0.376,0.186c-0.79,5.064,5.026,11.875,10.523,11.277c0.433-1.713,0.274-4.871,0.188-7.33
	c-2.088-0.73-3.105-2.533-4.322-4.132C343.514,48.814,341.51,48.814,339.506,48.814z M355.291,49
	c-1.169,1.055-2.125,3.443-3.57,3.947c0.193,2.438-0.424,5.686,0.375,7.518c5.749-1.207,9.739-5.168,9.772-11.464
	C359.898,49.029,356.162,48.215,355.291,49z M364.312,49c-1.479,7.105-4.927,12.238-12.216,13.531c-0.599,1.912-0.599,5.98,0,7.895
	c1.145-0.215,2.409-0.086,3.571-0.377c8.174-2.037,15.66-11.016,15.41-21.048C369.193,48.678,366.202,48.72,364.312,49z"/>
<path fill-rule="evenodd" clip-rule="evenodd" fill="#FFFFFF" d="M316.391,23.631c-2.425,3.152-5.17,5.981-8.081,8.644
	c-1.029-0.311-2.079-2.161-3.007-3.195c0.921-1.095,1.778-1.816,1.691-3.57c-0.231-4.582-6.856-4.463-7.143,0.564
	c-0.754-3.393-0.369-8.885-0.188-12.592C307.891,14.214,312.935,18.128,316.391,23.631z"/>
<path fill-rule="evenodd" clip-rule="evenodd" fill="#FFFFFF" d="M296.094,13.67c1.01,1.308,0.564,3.531,0.564,5.64
	c0,2.064,0,4.348,0,6.2c-2.107,1.486-4.172,3.484-3.008,6.578c0.541,1.439,2.976,3.281,4.51,4.697
	c3.388,3.125,6.166,5.832,9.396,8.833c2.85,2.646,5.53,4.478,7.517,7.704c5.473,13.502,0.596,31.42-15.409,30.822
	c-0.435-3.826-0.065-8.457-0.188-12.592c2.859-0.836,5.625-1.768,6.577-4.51c0.301-2.477-0.222-5.037-1.315-6.391
	c-1.787-2.211-4.363-4.295-6.766-6.578c-2.168-2.061-4.424-4.209-6.766-6.388c-4.689-4.363-10.114-8.846-10.336-16.162
	c-0.043-1.41,0.261-3.996,0.563-5.638c0.969-5.248,4.756-8.602,9.021-11.087C292.462,14.549,293.992,13.824,296.094,13.67z
	 M283.879,24.006c0.744,3.905,7.003,3.69,6.952-0.94c-0.025-2.319-1.629-3.848-4.134-3.382
	C284.361,20.119,283.457,21.804,283.879,24.006z"/>
<path fill-rule="evenodd" clip-rule="evenodd" fill="#FFFFFF" d="M396.822,14.798c0,7.392,0,16.687,0,25.935
	c0,13.269-1.803,27.404,8.646,29.503c-0.125,4.135,0.251,8.771-0.188,12.592c-6.552,0.525-11.465-3.809-14.847-7.705
	c-6.922-10.85-5.074-31.718-5.074-50.176c0-3.386-0.276-8.381,0.376-10.148C388.377,14.539,393.589,14.451,396.822,14.798z
	 M390.434,29.833c-3.532,1.329-2.207,8.028,2.256,7.141c1.174-0.233,1.605-1.313,2.442-2.255
	C396.017,30.807,392.859,28.92,390.434,29.833z"/>
<path fill-rule="evenodd" clip-rule="evenodd" fill="#FFFFFF" d="M428.02,14.798c0.312,5.265,0.314,11.837,0,17.102
	c-0.212,0.79-1.856,0.147-2.442,0.564c-3.101,1.539-2.28,8.252,2.63,7.141c0.215,16.956,0.873,32.385-8.27,39.84
	c-1.035,0.846-2.041,2.07-2.631,2.443c-2.517,1.592-5.885,1-9.208,1.314c0.063-4.518-0.104-9.463,0-12.967
	c1.544-0.711,3.393-1.117,4.698-2.066c0.432-2.139,2.141-3.35,2.818-5.449c1.026-3.18,0.41-6.902,0.376-10.713
	c-0.013-1.443,0.617-2.806,0.752-4.322c0.388-4.338-0.29-9.053,0-13.532c1.14-0.736,2.552-1.109,3.008-2.442
	c0.879-2.567-0.99-4.778-3.008-5.637c0.126-3.697-0.251-7.893,0.188-11.276C420.219,14.496,424.734,14.479,428.02,14.798z"/>
<path fill-rule="evenodd" clip-rule="evenodd" fill="#FFFFFF" d="M464.854,14.61c7.674,22.039,15.996,43.837,23.491,66.526
	c-4.162-0.232-8.303,0.406-12.027,0c-8.015-21.805-15.72-44.916-23.491-66.338C456.463,14.363,460.904,14.732,464.854,14.61z
	 M458.088,16.489c-1.394,0.548-2.017,2.231-1.879,4.699c0.869,1.447,1.8,2.835,4.51,2.443
	C464.802,21.906,462.668,14.69,458.088,16.489z"/>
<path fill-rule="evenodd" clip-rule="evenodd" fill="#FFFFFF" d="M491.539,14.61c3.323,0.121,7.136-0.246,10.148,0.188
	c0.436,8.209,0.064,17.225,0.188,25.748c-0.912,0.904-2.472,1.16-3.008,2.442c-1.024,3.313,1.02,5.094,3.008,6.012
	c-0.124,10.652,0.247,21.798-0.188,32.136c-3.959-0.186-6.663,0.656-10.336,0.188c-0.338-7.969-0.187-18.748-0.187-28.002
	c0-3.271-0.659-7.246,0-9.395c0.457-1.499,2.339-2.148,2.44-3.758c0.155-2.431-1.483-3.158-2.44-4.324c0-6.89,0-13.781,0-20.672
	C491.155,14.851,491.303,14.687,491.539,14.61z"/>
<path fill-rule="evenodd" clip-rule="evenodd" fill="#FFFFFF" d="M533.822,65.539c-0.086,0.916,0.198,2.201-0.187,2.818
	c-1.728,3.16-5.157,4.615-7.142,7.516c-3.793,1.152-7.052,3.467-11.275,4.324c-3.184,0.646-6.562,0.865-10.713,0.752
	c-0.593-3.055-0.646-8.605,0-11.652c2.587-0.453,5.267-0.016,8.081-0.562c3.757-0.73,8.216-3.342,10.711-5.826
	c0.823-0.816,2.063-2.408,2.444-3.195c0.701-1.447,0.475-3.219,2.068-3.945c1.711-5.013,2.254-10.45,0.562-14.847
	c-0.414-1.08-1.303-1.576-1.879-2.63c-0.431-0.791-0.418-1.75-0.752-2.444c-2.81-5.83-11.396-10.34-21.423-9.771
	c-0.435-3.325-0.067-7.452-0.188-11.089c0.138-0.175,0.342-0.285,0.562-0.375c8.622-0.478,15.096,1.192,19.921,4.51
	c0.66,0.093,1.224,0.28,2.067,0.189c-0.083,0.997,0.387,1.109,0.753,1.502c1.507,1.625,3.385,2.836,4.886,4.51
	c4.062,4.54,7.811,10.986,8.456,19.168c0.532,6.738-0.936,13.238-3.57,18.605C535.617,63.449,534.605,64.378,533.822,65.539z
	 M529.501,65.539c4.396-0.1,4.343-8.408-0.94-7.33C524.721,59.296,525.688,65.625,529.501,65.539z"/>
<path fill-rule="evenodd" clip-rule="evenodd" fill="#FFFFFF" d="M450.57,21c0.219-0.031,0.335,0.042,0.376,0.188
	c2.148,5.244,3.739,11.043,5.826,16.35c-1.609,5.908-4.445,11.589-5.638,17.288c2.438,1.111,7.786,0.322,11.651,0.562
	c1.329,3.809,2.882,7.393,3.946,11.465c-6.233,0.195-13.381-0.193-19.92,0.189c-2.343,4.172-3.443,9.586-5.451,14.094
	c-3.766,0.008-9.017,0.1-11.65,0.377c-0.391-2.678,1.243-5.105,2.066-7.518c2.594-7.588,5.174-15.037,7.893-22.553
	C443.361,41.244,446.888,30.975,450.57,21z"/>
<path fill-rule="evenodd" clip-rule="evenodd" fill="#FFFFFF" d="M296.469,70.8c0.304,3.969,0.317,9.189,0,13.154
	c-7.681-0.643-13.135-4.727-15.785-10.9c-0.482-1.121-1.471-3.502-1.315-4.32c0.198-1.055,2.649-2.461,3.946-3.385
	c1.928-1.371,3.482-2.043,4.698-3.193C290.724,65.146,291.767,69.8,296.469,70.8z"/>
<rect x="411.092" y="8.916" fill="none" width="31.271" height="15.634"/>
<path fill="#EE2C27" d="M596.319,82.373c3.93,5.893,10.665,9.684,18.243,9.684c12.21,0,22.032-9.822,22.032-22.033
	c0-11.926-9.401-21.469-21.19-22.032h-15.436l27.084-40.273h-30.733V0h40.275v6.874l-22.313,33.399h0.281
	c16.559,0,29.893,13.191,29.893,29.75s-13.334,29.891-29.893,29.891c-10.383,0-19.506-5.332-24.838-13.332L596.319,82.373z"/>
<path fill-rule="evenodd" clip-rule="evenodd" fill="#EE2C27" d="M593.529,1.436c0.378,0.67-0.384,1.14-0.245,1.969
	c-0.085,0.657,0.738,0.409,0.738,0.983c0.019,1.25-0.714,1.747-1.478,2.215c-3.15,13.827-5.729,28.225-8.734,42.198
	c0.409,0.453,1.168,0.556,1.846,0.738c1.045-1.457,0.874-4.129,1.229-6.274c1.084,0.27,2.089,0.618,3.199,0.86
	c-1.997,6.014-3.078,12.429-4.429,18.947c-0.715,3.447-1.838,6.869-1.969,10.58c-1.376,0.021-2.262-0.447-3.322-0.738
	c0.477-3.461,2.314-5.561,2.338-9.475c-0.25-0.281-0.736-0.328-1.229-0.367c-0.768,0.812-0.298,1.938-0.492,2.83
	c-0.24,1.1-1.282,2.311-1.969,3.197c-0.972,1.258-3.162,3.316-3.323,5.291c-0.07,0.904,0.404,1.695,0.494,2.582
	c0.079,0.795,0.062,1.699,0,2.461c-0.162,1.936-0.548,3.953-0.861,5.906c-0.76,4.713-1.695,9.252-2.461,14.148
	c-5.093,0.443-11.24,0.488-16.486,0.367c0.141-2.211,1.47-4.076,2.461-5.904c2.492-4.596,5.059-9.031,7.751-13.779
	c0.516-0.908,1.317-1.744,1.6-2.584c0.693-2.072,0.083-4.197,1.476-5.535c1.195-1.148,3.477-1.125,4.184-2.707
	c-0.617-0.752-1.624-0.58-2.092-1.354c-1.102-1.82,0.584-4.221,1.6-5.166c0.799-0.104,1.454-0.352,2.214-0.494
	c1.12-4.416,2.146-8.926,2.953-13.654c0.231-0.302,0.804-0.264,1.108-0.492c1.706-6.454,2.724-13.597,4.552-19.93
	c1.871,0.486,2.055-1.169,2.583-3.691c1.299-6.2,3.176-14.067,4.306-19.807c0.323-1.635,0.258-2.548,0.738-3.69
	C592.511,1.06,593.275,0.993,593.529,1.436z M583.318,51.138c-0.602,3.133-1.906,6.211-1.723,9.719
	c0.437,0.336,1.275,0.381,1.846,0.246c0.655-3.117,1.362-6.184,1.969-9.35C584.996,51.265,584.291,51.068,583.318,51.138z
	 M572.368,67.253c0.541,0.404,0.978,0.91,1.97,0.861c0.242-0.373,0.295-0.934,0.245-1.6c-0.33-0.324-1.21-0.102-1.354-0.613
	c0.02-0.951,0.813-0.373,1.601-0.492c0.288-0.451,0.533-0.943,0.492-1.723C573.199,63.263,572.255,65.035,572.368,67.253z"/>
<path fill-rule="evenodd" clip-rule="evenodd" fill="#EE2C27" d="M627.13,82.308c0.85,1.229,1.8,2.322,2.771,3.447
	c0.917,1.061,2.153,2.039,2.66,3.445c-1.837,0.605-5.686,0.23-7.536,0.197c-1.36-0.793-1.817-2.389-3.103-3.25
	c-3.571,1.654-8.83,2.5-13.633,1.379c-7.264-1.691-13.049-8.281-14.074-15.461c-0.924-6.473,1.587-11.586,5.099-15.266
	c3.837-4.02,10.933-7.359,19.062-5.219c6.364,1.676,11.312,6.668,13.077,12.309C633.556,70.611,631.67,77.689,627.13,82.308z
	 M600.976,68.914c0.897,0.373,2.914,0.207,3.989,0.1c0.966-3.838,2.918-6.797,7.646-7.289c0.456-1.342,0.41-3.211,0-4.234
	C605.436,58.302,601.457,62.482,600.976,68.914z M614.164,57.49c-0.346,1.082-0.358,3.256,0,4.334
	c4.59,0.484,6.306,3.523,7.313,7.189c1.065,0.158,2.814,0.158,3.88,0C625.639,62.742,620.027,58.037,614.164,57.49z M626.797,58.769
	c-1.131-0.707-2.801-0.176-3.103,1.084c-0.395,1.648,0.662,2.32,1.885,2.66C627.735,62.378,628.307,59.716,626.797,58.769z
	 M606.184,68.816c0.84,0.533,2.65,0.205,3.991,0.295c0.671-1.012,1.483-1.898,2.659-2.463c0.001-1.104,0.165-2.719-0.111-3.742
	C608.814,62.947,606.899,65.611,606.184,68.816z M614.164,62.808c-0.395,0.98-0.251,2.906-0.112,4.037
	c0.965,0.523,1.582,1.354,2.106,2.266c1.307-0.119,3.2,0.285,3.99-0.295C619.632,65.5,617.71,63.431,614.164,62.808z
	 M601.309,70.095c-0.161,0.057-0.271,0.154-0.333,0.297c0.037,0.412-0.049,0.9,0,1.279c0.489,3.838,3.94,7.656,7.868,9.16
	c1.092,0.418,2.495,0.521,3.768,0.689c0.527-1.047,0.247-3.312,0.111-4.137c-4.525-0.641-6.799-3.283-7.647-7.191
	C604.006,69.998,602.553,70.138,601.309,70.095z M606.739,70.095c-0.112,0-0.134,0.08-0.223,0.098
	c-0.464,2.654,2.965,6.225,6.206,5.91c0.255-0.896,0.162-2.553,0.111-3.84c-1.231-0.383-1.832-1.326-2.549-2.168
	C609.104,70.095,607.92,70.095,606.739,70.095z M616.048,70.193c-0.689,0.553-1.253,1.805-2.106,2.07
	c0.114,1.275-0.249,2.979,0.223,3.938c3.391-0.631,5.743-2.707,5.762-6.008C618.766,70.208,616.562,69.781,616.048,70.193z
	 M621.367,70.193c-0.872,3.725-2.905,6.416-7.203,7.092c-0.354,1.002-0.354,3.135,0,4.137c0.675-0.111,1.421-0.045,2.105-0.197
	c4.82-1.066,9.235-5.771,9.088-11.031C624.246,70.025,622.482,70.048,621.367,70.193z"/>
</svg>
