<?xml version="1.0" encoding="UTF-8" standalone="no"?>
<svg
   xmlns:dc="http://purl.org/dc/elements/1.1/"
   xmlns:cc="http://creativecommons.org/ns#"
   xmlns:rdf="http://www.w3.org/1999/02/22-rdf-syntax-ns#"
   xmlns:svg="http://www.w3.org/2000/svg"
   xmlns="http://www.w3.org/2000/svg"
   xmlns:sodipodi="http://sodipodi.sourceforge.net/DTD/sodipodi-0.dtd"
   xmlns:inkscape="http://www.inkscape.org/namespaces/inkscape"
   viewBox="0 0 300 299.99899"
   height="299.99899"
   width="300"
   xml:space="preserve"
   id="svg2"
   version="1.1"
   inkscape:version="0.91 r13725"
   sodipodi:docname="line-messenger.svg"><sodipodi:namedview
     pagecolor="#ffffff"
     bordercolor="#666666"
     borderopacity="1"
     objecttolerance="10"
     gridtolerance="10"
     guidetolerance="10"
     inkscape:pageopacity="0"
     inkscape:pageshadow="2"
     inkscape:window-width="1366"
     inkscape:window-height="705"
     id="namedview4147"
     showgrid="false"
     inkscape:zoom="0.47749705"
     inkscape:cx="396.85068"
     inkscape:cy="561.26001"
     inkscape:window-x="-8"
     inkscape:window-y="-8"
     inkscape:window-maximized="1"
     inkscape:current-layer="svg2" /><metadata
     id="metadata8"><rdf:RDF><cc:Work
         rdf:about=""><dc:format>image/svg+xml</dc:format><dc:type
           rdf:resource="http://purl.org/dc/dcmitype/StillImage" /><dc:title></dc:title></cc:Work></rdf:RDF></metadata><defs
     id="defs6"><clipPath
       id="clipPath18"
       clipPathUnits="userSpaceOnUse"><path
         id="path16"
         d="m 0,841.89 595.276,0 L 595.276,0 0,0 Z"
         inkscape:connector-curvature="0" /></clipPath></defs><g
     transform="matrix(0.79414871,0,0,-0.79414871,-87.052994,483.85158)"
     id="g10"><g
       id="g12"><g
         clip-path="url(#clipPath18)"
         id="g14"><path
           id="path20"
           style="fill:#3ace01;fill-opacity:1;fill-rule:nonzero;stroke:none"
           d="m 186.933,609.271 223.133,0 c 42.523,0 77.315,-34.792 77.315,-77.314 l 0,-223.133 c 0,-42.523 -34.792,-77.315 -77.315,-77.315 l -223.133,0 c -42.523,-10e-4 -77.315,34.791 -77.315,77.315 l 0,223.133 c 0,42.522 34.792,77.314 77.315,77.314"
           inkscape:connector-curvature="0" /><path
           id="path22"
           style="fill:#ffffff;fill-opacity:1;fill-rule:nonzero;stroke:none"
           d="m 298.133,546.695 c 76.543,0 138.594,-49.686 138.594,-110.978 0,-21.409 -7.577,-41.399 -20.692,-58.351 -0.649,-0.966 -1.497,-2.031 -2.566,-3.209 l -0.081,-0.089 c -4.48,-5.359 -9.525,-10.391 -15.072,-15.036 -38.326,-35.426 -101.41,-77.601 -109.736,-71.094 -7.238,5.656 11.921,33.321 -10.183,37.924 -1.542,0.178 -3.08,0.367 -4.605,0.583 l -0.029,0.003 0,0.002 c -64.921,9.223 -114.222,54.634 -114.222,109.267 -0.002,61.292 62.049,110.978 138.592,110.978"
           inkscape:connector-curvature="0" /><path
           id="path24"
           style="fill:#3ace01;fill-opacity:1;fill-rule:nonzero;stroke:none"
           d="m 265.963,400.317 0.603,0 c 3.976,0 7.228,3.253 7.228,7.23 l 0,53.609 c 0,3.976 -3.252,7.228 -7.228,7.228 l -0.603,0 c -3.976,0 -7.229,-3.252 -7.229,-7.228 l 0,-53.609 c 0,-3.977 3.253,-7.23 7.229,-7.23 m 71.209,2.156 0.002,0.003 c 1.289,1.308 2.09,3.1 2.09,5.07 l 0,53.609 c 0,3.976 -3.252,7.228 -7.23,7.228 l -0.602,0 c -3.977,0 -7.229,-3.252 -7.229,-7.228 l 0,-31.469 -26.126,35.042 c -1.248,2.179 -3.598,3.655 -6.276,3.655 l -0.603,0 c -3.976,0 -7.229,-3.252 -7.229,-7.228 l 0,-53.609 c 0,-3.977 3.252,-7.23 7.229,-7.23 l 0.603,0 c 3.976,0 7.228,3.253 7.228,7.23 l 0,32.058 26.315,-35.941 c 0.162,-0.252 0.338,-0.494 0.529,-0.725 l 0.001,-10e-4 c 0.724,-0.986 1.712,-1.663 2.814,-2.076 0.847,-0.349 1.773,-0.544 2.742,-0.544 l 0.603,0 c 1.218,0 2.367,0.307 3.377,0.845 0.723,0.344 1.332,0.788 1.762,1.311 m 53.754,31.448 0,0.602 c 0,3.977 -3.252,7.229 -7.229,7.229 l -20.12,0 0,11.444 20.12,0 c 3.977,0 7.229,3.253 7.229,7.229 l 0,0.602 c 0,3.977 -3.252,7.229 -7.229,7.229 l -27.349,0 -0.138,0 -0.465,0 c -3.975,0 -7.227,-3.252 -7.227,-7.229 l 0,-53.608 c 0,-3.977 3.252,-7.23 7.227,-7.23 l 0.465,0 0.138,0 27.349,0 c 3.977,0 7.229,3.253 7.229,7.23 l 0,0.602 c 0,3.977 -3.252,7.229 -7.229,7.229 l -20.12,0 0,11.444 20.12,0 c 3.977,-0.002 7.229,3.251 7.229,7.227 m -173.205,-33.604 0.465,0 0.138,0 27.349,0 c 3.976,0 7.228,3.253 7.228,7.23 l 0,0.602 c 0,3.977 -3.252,7.229 -7.228,7.229 l -20.121,0 0,45.779 c 0,3.976 -3.252,7.228 -7.228,7.228 l -0.603,0 c -3.976,0 -7.228,-3.252 -7.228,-7.228 l 0,-53.609 c 0,-3.978 3.252,-7.231 7.228,-7.231"
           inkscape:connector-curvature="0" /></g></g></g></svg>