<?xml version="1.0" encoding="utf-8"?>
<!-- Generator: Adobe Illustrator 16.0.0, SVG Export Plug-In . SVG Version: 6.00 Build 0)  -->
<!DOCTYPE svg PUBLIC "-//W3C//DTD SVG 1.1//EN" "http://www.w3.org/Graphics/SVG/1.1/DTD/svg11.dtd">
<svg version="1.1" id="Layer_1" xmlns="http://www.w3.org/2000/svg" xmlns:xlink="http://www.w3.org/1999/xlink" x="0px" y="0px"
	 width="20px" height="20px" viewBox="0 0 20 20" enable-background="new 0 0 20 20" xml:space="preserve">
<path fill="#FFFFFF" d="M13.741,7.972l-3.707,3.503l0.059-5.099c-2.657-0.033-4.923,1.997-5.142,4.685
	c-0.229,2.808,1.862,5.269,4.67,5.498s5.269-1.862,5.497-4.67C15.24,10.388,14.699,8.987,13.741,7.972z"/>
<path fill="#FFFFFF" d="M10.016,4.07c-4.08,0-7.387,3.307-7.387,7.387s3.307,7.387,7.387,7.387s7.387-3.307,7.387-7.387
	S14.096,4.07,10.016,4.07z M10.016,18.034c-3.632,0-6.577-2.945-6.577-6.577s2.945-6.577,6.577-6.577s6.577,2.945,6.577,6.577
	S13.648,18.034,10.016,18.034z"/>
<path fill="#FFFFFF" d="M16.175,6.112c-0.148,0.148-0.377,0.161-0.511,0.027L14.73,5.205c-0.134-0.134-0.122-0.362,0.026-0.511
	l0.526-0.527c0.148-0.148,0.387-0.17,0.521-0.036l0.934,0.935c0.134,0.134,0.112,0.372-0.036,0.52L16.175,6.112z"/>
<path fill="#FFFFFF" d="M11.728,2.537c-0.005,0.21-0.162,0.376-0.352,0.372l-3.32-0.031C7.867,2.873,7.718,2.7,7.723,2.49
	L7.74,1.745c0.005-0.21,0.163-0.39,0.352-0.385l3.32,0.032c0.189,0.005,0.338,0.191,0.333,0.401L11.728,2.537z"/>
</svg>
